<?xml version="1.0" encoding="UTF-8"?>
<svg id="_레이어_1" data-name="레이어 1" xmlns="http://www.w3.org/2000/svg" xmlns:xlink="http://www.w3.org/1999/xlink" viewBox="0 0 501.67 1100.75">
  <defs>
    <style>
      .cls-1, .cls-2 {
        fill: #d4d5da;
      }

      .cls-1, .cls-3 {
        font-family: Pretendard-SemiBold-KSCpc-EUC-H, Pretendard;
        font-size: 13.48px;
        font-weight: 600;
      }

      .cls-4 {
        fill: url(#_무제_그라디언트_12);
      }

      .cls-5 {
        filter: url(#drop-shadow-2);
      }

      .cls-6 {
        font-family: KIMWILDgag-Bold, 'KIMWILDgag Bold';
        text-decoration: underline;
      }

      .cls-6, .cls-7, .cls-8, .cls-3, .cls-9, .cls-10 {
        fill: #eb5e33;
      }

      .cls-6, .cls-11 {
        font-size: 25px;
        font-weight: 700;
      }

      .cls-12, .cls-13, .cls-9 {
        font-size: 17.16px;
      }

      .cls-12, .cls-13, .cls-9, .cls-14 {
        font-family: esamanruLight, esamanruLight;
      }

      .cls-12, .cls-14 {
        fill: #7c7c7c;
      }

      .cls-15, .cls-16 {
        fill: #fff;
      }

      .cls-7, .cls-17 {
        stroke: #fff;
      }

      .cls-7, .cls-17, .cls-16 {
        stroke-miterlimit: 10;
      }

      .cls-18 {
        filter: url(#drop-shadow-4);
      }

      .cls-19 {
        filter: url(#drop-shadow-1);
      }

      .cls-20 {
        fill: url(#_무제_그라디언트_4);
      }

      .cls-8 {
        font-family: esamanruMedium, esamanruMedium;
        font-size: 21.46px;
      }

      .cls-21, .cls-13, .cls-11 {
        fill: #f8f6f1;
      }

      .cls-22 {
        fill: #d4d6da;
      }

      .cls-23 {
        fill: url(#_무제_그라디언트_3-2);
      }

      .cls-17, .cls-24 {
        fill: none;
        stroke-width: 2px;
      }

      .cls-25 {
        filter: url(#drop-shadow-3);
      }

      .cls-16, .cls-24 {
        stroke: #eb5e33;
      }

      .cls-14 {
        font-size: 29.15px;
      }

      .cls-24 {
        stroke-linecap: square;
        stroke-linejoin: round;
      }

      .cls-26 {
        fill: url(#_무제_그라디언트_3);
      }

      .cls-11 {
        font-family: Pretendard-ExtraBold-KSCpc-EUC-H, Pretendard;
      }
    </style>
    <linearGradient id="_무제_그라디언트_4" data-name="무제 그라디언트 4" x1="0" y1="67.27" x2="502.25" y2="67.27" gradientUnits="userSpaceOnUse">
      <stop offset="0" stop-color="#eb5e33"/>
      <stop offset=".41" stop-color="#eb5e33"/>
    </linearGradient>
    <filter id="drop-shadow-1" x="86.99" y="817.1" width="368.16" height="56.64" filterUnits="userSpaceOnUse">
      <feOffset dx="2.83" dy="2.83"/>
      <feGaussianBlur result="blur" stdDeviation="2.83"/>
      <feFlood flood-color="#000" flood-opacity=".5"/>
      <feComposite in2="blur" operator="in"/>
      <feComposite in="SourceGraphic"/>
    </filter>
    <linearGradient id="_무제_그라디언트_3" data-name="무제 그라디언트 3" x1="423.87" y1="862.25" x2="423.87" y2="822.83" gradientUnits="userSpaceOnUse">
      <stop offset="0" stop-color="#eb5e33"/>
      <stop offset=".41" stop-color="#eb5e33"/>
    </linearGradient>
    <filter id="drop-shadow-2" x="47.63" y="683.9" width="412.08" height="101.76" filterUnits="userSpaceOnUse">
      <feOffset dx="2.83" dy="2.83"/>
      <feGaussianBlur result="blur-2" stdDeviation="2.83"/>
      <feFlood flood-color="#000" flood-opacity=".5"/>
      <feComposite in2="blur-2" operator="in"/>
      <feComposite in="SourceGraphic"/>
    </filter>
    <linearGradient id="_무제_그라디언트_3-2" data-name="무제 그라디언트 3" x1="250.83" y1="774.16" x2="250.83" y2="689.68" xlink:href="#_무제_그라디언트_3"/>
    <filter id="drop-shadow-3" x="47.15" y="294.14" width="284.16" height="57.6" filterUnits="userSpaceOnUse">
      <feOffset dx="2.83" dy="2.83"/>
      <feGaussianBlur result="blur-3" stdDeviation="2.83"/>
      <feFlood flood-color="#000" flood-opacity=".5"/>
      <feComposite in2="blur-3" operator="in"/>
      <feComposite in="SourceGraphic"/>
    </filter>
    <filter id="drop-shadow-4" x="161.87" y="401.42" width="298.32" height="57.6" filterUnits="userSpaceOnUse">
      <feOffset dx="2.83" dy="2.83"/>
      <feGaussianBlur result="blur-4" stdDeviation="2.83"/>
      <feFlood flood-color="#000" flood-opacity=".5"/>
      <feComposite in2="blur-4" operator="in"/>
      <feComposite in="SourceGraphic"/>
    </filter>
    <linearGradient id="_무제_그라디언트_12" data-name="무제 그라디언트 12" x1="234.25" y1="941.43" x2="234.25" y2="976.17" gradientUnits="userSpaceOnUse">
      <stop offset=".46" stop-color="#eb5e33"/>
      <stop offset="1" stop-color="#e1772d"/>
    </linearGradient>
  </defs>
  <rect class="cls-21" y="53.86" width="501.67" height="1046.88"/>
  <path class="cls-20" d="M.59,0v53.86H0v57.19C0,124.02,10.51,134.53,23.48,134.53h454.71c12.97,0,23.48-10.51,23.48-23.48v-57.19h.59V0H.59Z"/>
  <text class="cls-6" transform="translate(114.62 205.73)"><tspan x="0" y="0">숭실대 동아리 회식 (32)</tspan></text>
  <g class="cls-19">
    <rect class="cls-22" x="92.8" y="822.83" width="350.77" height="39.41" rx="18.37" ry="18.37"/>
  </g>
  <rect class="cls-26" x="404.16" y="822.83" width="39.41" height="39.41" rx="18.37" ry="18.37"/>
  <text class="cls-12" transform="translate(105.13 846.76)"><tspan x="0" y="0">자유롭게 메시지를 입력해주세요.</tspan></text>
  <text class="cls-14" transform="translate(57.66 851.32)"><tspan x="0" y="0">+</tspan></text>
  <path class="cls-15" d="M432.65,834.58v.48l-.07.43-4.92,15.2c-.17.37-.38.61-.81.63h-.45c-.4-.02-.62-.23-.79-.57l-2.07-6.22c1.23-1.8,2.48-3.6,3.74-5.39l-5.42,3.73c-2.09-.68-4.17-1.37-6.26-2.08-.33-.17-.5-.4-.53-.77v-.45c.01-.48.34-.67.73-.84l15.28-4.91c.64-.16,1.5-.06,1.56.75Z"/>
  <g>
    <path class="cls-24" d="M194.24,632.21c-.06.73-.46,1.09-1.19,1.09h-15.98l-.86,9.83c-.04.43-.2.78-.48,1.04-.25.23-.54.35-.86.35s-.59-.12-.8-.35c-.21-.26-.29-.61-.26-1.04l.86-9.83h-15.85c-.76,0-1.1-.36-1.04-1.09.03-.73.47-1.09,1.32-1.09h34.06c.76,0,1.12.36,1.08,1.09ZM192.42,609.15c.21.23.31.5.28.79-.03.29-.15.55-.37.79-.22.23-.53.35-.9.35h-23.58c-.73,0-1.3.17-1.71.52-.35.35-.55.85-.61,1.48l-.26,2.93h25.63c.84,0,1.23.36,1.17,1.09-.07.76-.51,1.14-1.32,1.14h-25.68l-.31,3.54c-.06.64.05,1.09.32,1.35.24.29.72.44,1.45.44h23.76c.79,0,1.15.36,1.08,1.09-.04.76-.45,1.14-1.24,1.14h-24.37c-1.19,0-2.11-.32-2.75-.96-.7-.64-1-1.56-.89-2.75l.81-9.26c.11-1.22.54-2.18,1.3-2.88.79-.73,1.89-1.09,3.28-1.09h23.97c.41,0,.72.1.93.31Z"/>
    <path class="cls-24" d="M212.07,632.03c.25-.2.56-.31.94-.31.35,0,.63.1.85.31.27.23.39.55.35.96l-.55,6.29h12.88l.56-6.42c.07-.81.54-1.21,1.41-1.18.87,0,1.27.41,1.2,1.22l-.56,6.38h7.86c.41,0,.72.1.93.31.21.23.31.5.28.79-.03.29-.16.55-.42.79-.25.23-.57.35-.95.35h-34.28c-.32,0-.56-.12-.71-.35-.15-.23-.21-.5-.15-.79.05-.29.19-.55.42-.79.25-.2.58-.31.99-.31h7.9l.55-6.29c.04-.41.2-.73.48-.96ZM236.35,627.62c-.04.76-.42,1.14-1.15,1.14h-28.43c-.7,0-1-.38-.9-1.14.06-.73.47-1.09,1.23-1.09h5.42l-.31-11.92c-.02-.41.11-.74.39-1,.22-.2.51-.32.86-.35.35-.03.65.04.9.22.27.2.42.51.44.92l.29,12.14h12.23l2.46-12.1c.06-.41.24-.71.52-.92.28-.17.59-.25.94-.22.35.03.61.15.8.35.24.26.32.61.26,1.05l-2.39,11.83h5.42c.76,0,1.1.36,1.04,1.09ZM237.58,609.5c.18.2.26.47.24.79,0,.29-.11.54-.33.74-.23.26-.52.39-.87.39h-28.17c-.79,0-1.15-.38-1.08-1.14.04-.76.46-1.14,1.28-1.14h27.99c.38,0,.69.12.93.35Z"/>
    <path class="cls-24" d="M268.28,615c.18.2.28.47.28.79-.03.29-.15.54-.37.74-.23.26-.53.39-.91.39h-17.12c-.82,0-1.19-.38-1.12-1.14.07-.76.51-1.14,1.32-1.14h16.94c.41,0,.73.12.97.35ZM264.31,623.38c1.2,1.98,1.67,4.41,1.42,7.29-.25,2.91-1.15,5.36-2.69,7.34-1.68,2.24-3.82,3.36-6.41,3.36s-4.6-1.12-5.95-3.36c-1.19-2.01-1.66-4.45-1.41-7.34.25-2.85,1.15-5.28,2.69-7.29,1.74-2.21,3.92-3.32,6.54-3.32s4.5,1.11,5.82,3.32ZM253.7,624.87c-1.03,1.51-1.66,3.45-1.86,5.81-.2,2.33.08,4.25.85,5.76.86,1.78,2.24,2.66,4.13,2.66s3.34-.89,4.51-2.66c1.07-1.54,1.7-3.46,1.9-5.76.21-2.36-.09-4.29-.89-5.81-.87-1.72-2.22-2.58-4.05-2.58s-3.42.86-4.59,2.58ZM264.66,609.89c-.07.76-.51,1.14-1.32,1.14h-8.12c-.84,0-1.23-.38-1.17-1.14.06-.73.52-1.09,1.36-1.09h8.08c.84,0,1.23.36,1.17,1.09ZM281.47,608.01c.84,0,1.23.38,1.17,1.13l-2.98,34.11c-.03.38-.21.68-.52.92-.25.23-.54.35-.86.35-.35,0-.63-.1-.85-.31-.24-.23-.35-.54-.31-.92l1.38-15.81h-6.16l-1.38,15.72c-.04.41-.21.74-.52,1-.25.2-.55.31-.9.31s-.63-.1-.85-.3c-.24-.26-.34-.6-.31-1l2.98-34.06c.07-.76.52-1.13,1.37-1.13s1.28.38,1.21,1.13l-1.42,16.2h6.16l1.42-16.2c.07-.75.52-1.13,1.37-1.13Z"/>
    <path class="cls-24" d="M302.66,629.28c.87,0,1.27.41,1.2,1.22l-.77,8.78h12.88l.78-8.86c.07-.82.54-1.21,1.41-1.18.87,0,1.28.41,1.2,1.22l-.77,8.82h7.86c.41,0,.72.1.93.31.21.23.31.5.28.79-.03.29-.17.55-.42.79-.25.23-.57.35-.95.35h-34.28c-.32,0-.56-.12-.71-.35-.15-.23-.21-.5-.15-.79.06-.29.19-.55.42-.79.25-.2.58-.31.99-.31h7.9l.77-8.82c.07-.82.54-1.21,1.41-1.18ZM323.31,611.86c2.4,1.86,3.47,4.29,3.21,7.29-.26,2.94-1.75,5.33-4.47,7.16-2.91,1.95-6.79,2.93-11.65,2.93s-8.62-.98-11.19-2.93c-2.37-1.83-3.43-4.22-3.17-7.16.26-3,1.74-5.43,4.44-7.29,2.91-1.98,6.81-2.97,11.7-2.97s8.57.99,11.14,2.97ZM302.22,613.43c-2.22,1.43-3.44,3.33-3.64,5.72-.21,2.36.68,4.24,2.65,5.63,2.14,1.48,5.26,2.23,9.37,2.23s7.31-.74,9.71-2.23c2.25-1.43,3.48-3.3,3.68-5.63.21-2.39-.69-4.29-2.69-5.72-2.14-1.51-5.25-2.27-9.32-2.27s-7.36.76-9.76,2.27Z"/>
    <path class="cls-24" d="M340.86,639.41c.34.44.48.98.43,1.62-.05.58-.29,1.09-.7,1.53-.45.47-1.01.7-1.68.7s-1.23-.23-1.6-.7c-.31-.44-.44-.95-.39-1.53.06-.64.28-1.18.67-1.62.45-.46,1.02-.7,1.72-.7s1.19.23,1.56.7ZM340.89,609.58c.28-.23.63-.35,1.04-.35.38,0,.69.12.93.35.3.23.43.55.4.96l-.9,10.26-1.97,12.49c-.09.7-.34,1.05-.75,1.05-.38,0-.55-.35-.52-1.05l.35-12.49.9-10.26c.04-.41.21-.73.52-.96Z"/>
  </g>
  <path class="cls-10" d="M337.24,526.53l-.72,9.89-1.9,21.89c-5.41,2.61-11.75,3.19-17.23,2.46.12-2.01.34-3.63.76-5.48l13.3.82,1.04-10.7,2.55-17.45-25.72-.15-.82,6.43-.46,5.33c4.6-.09,8.68-.06,13.04.46l-.56,4.68-12.8-.58c-1.73,9.29-2.9,18.37-3.62,27.77l11.92,1.28c5.75.62,11.42.33,17.3-.92l-.28,4.06,12.8,2.3,4.56-52.1h-13.17Z"/>
  <path class="cls-10" d="M179.04,528.53l-24.13.14-.63,3.66-.83,9.61c3.75-.28,7.3-.48,11.04-.22-.28,3.99-.75,7.7-1.87,11.5-1.08,3.35-2.72,6.35-5.29,8.84-1.86,1.66-3.82,2.89-6.07,3.98l5.22,12.24c7.44-2.8,13.1-6.69,16.01-14.21.89-2.3,1.63-4.55,2.04-6.96l2.37-14.01,4.34-.33c-.73,8.01-2.39,15.85-8.24,22.32l9.85,8.47c2.58-2.91,4.21-5.99,5.64-9.39,1.98-5.12,3.1-10.27,3.76-15.67l2.29-18.69-15.94,1.45.43-2.71Z"/>
  <path class="cls-10" d="M276.21,528.35h-16.93c-.23,0-.68.08-.8.21-.13.13-.28.55-.3.76l-1.05,11.35,6.51-.13c-.54,8.72-2.09,16.06-9.57,21.75l8.3,7.64c3.53-2.18,6.18-5.25,7.91-8.96,1.28-2.96,2.29-5.89,2.75-9.04l1.46-9.96,3.62-.26-1.55,10.12c-1.15,4.99-2.91,9.74-5.71,14.26l10.97,4.7c2.28-3.63,3.65-7.53,4.67-11.61,1.08-4.55,1.73-8.92,2.36-13.53l1.83-16.54-14.69,1.43.21-2.2Z"/>
  <path class="cls-10" d="M221.83,556.23c.09-5.28.67-10.32,1.59-15.52.77-4.34,1.69-8.36,2.9-12.84h-13c-1.76,7.87-3.03,15.59-3.89,23.59-.54,6.59-.7,12.89-.32,19.42l14.32-2.13c5.1-.76,10.04-2.15,15.03-3.83l-1.41-12.74c-5.16,2.22-10.01,3.64-15.2,4.06Z"/>
  <polygon class="cls-10" points="196.61 526.6 192.62 572.83 205.08 571.53 209.02 526.55 196.61 526.6"/>
  <polygon class="cls-10" points="305.04 526.55 292.54 526.54 291.76 538.58 288.83 571.23 301.04 572.3 301.69 563.67 305.04 526.55"/>
  <polygon class="cls-10" points="242.75 526.58 238.98 569.81 251.44 569.7 255.2 526.58 242.75 526.58"/>
  <g class="cls-5">
    <rect class="cls-23" x="53.44" y="689.68" width="394.78" height="84.47"/>
  </g>
  <g>
    <path class="cls-15" d="M122.64,733.03c-.05.58-.37.87-.95.87h-12.19l-.78,8.96c-.03.31-.16.57-.4.77-.2.18-.42.27-.66.27-.27,0-.49-.08-.65-.24-.18-.2-.26-.46-.23-.77l.79-9h-12.19c-.58,0-.84-.29-.76-.87.07-.56.42-.84,1.05-.84h26.12c.6,0,.89.28.87.84ZM121.68,717.55c-.05.58-.36.87-.92.87h-9.9l-.1,1.18c-.17,1.92.74,3.59,2.72,5,2,1.43,4.55,2.24,7.64,2.42.31,0,.55.09.72.27.14.18.19.39.15.64-.04.25-.16.45-.35.61-.2.18-.45.27-.76.27-2.98-.2-5.56-.95-7.73-2.25-1.96-1.19-3.16-2.52-3.61-4-.76,1.52-2.2,2.87-4.31,4.03-2.35,1.28-5,2.01-7.95,2.22-.34.02-.61-.07-.82-.27-.19-.16-.28-.37-.28-.64,0-.25.08-.46.26-.64.22-.22.51-.34.87-.34,3.06-.16,5.69-.93,7.89-2.32,2.25-1.43,3.46-3.11,3.63-5.04l.1-1.14h-9.84c-.63,0-.9-.29-.83-.87.05-.56.39-.84,1.01-.84h21.65c.56,0,.81.28.77.84Z"/>
    <path class="cls-15" d="M145.13,716.65c.65,0,.95.33.89.97l-1.01,11.58c-.07.76-.4,1.38-1,1.85-.58.49-1.31.74-2.18.74h-8.43c-.83,0-1.48-.21-1.96-.64-.5-.47-.71-1.12-.63-1.95l1-11.41c.03-.36.16-.64.38-.84.2-.2.43-.3.7-.3s.48.09.65.27c.21.2.29.48.26.84l-.35,4.03h10.31l.37-4.2c.06-.63.4-.94,1.02-.94ZM133.63,739.84c-.05.61.02,1.02.23,1.24.21.2.63.3,1.28.3h18.1c.56,0,.82.28.77.84-.05.58-.36.87-.92.87h-18.43c-1.01,0-1.78-.25-2.32-.74-.58-.51-.83-1.27-.74-2.25l.39-4.46c.03-.36.16-.64.38-.84.2-.18.44-.27.73-.27.27,0,.48.09.65.27.21.2.29.48.26.84l-.37,4.2ZM133.28,723.49l-.46,5.31c-.04.49.04.83.25,1.01.16.18.5.27,1.02.27h7.32c.54,0,.94-.1,1.2-.3.31-.2.48-.53.52-.97l.46-5.31h-10.31ZM153.2,736.05c-.19.18-.43.27-.69.27-.29,0-.52-.09-.68-.27-.18-.2-.26-.47-.23-.81l.56-6.41h-5.64c-.34,0-.6-.09-.78-.27-.17-.16-.24-.35-.22-.57.02-.25.12-.45.29-.61.21-.16.49-.23.83-.23h5.67l.38-4.4h-5.57c-.36,0-.64-.09-.85-.27-.16-.18-.25-.38-.25-.6.02-.22.12-.43.29-.6.19-.16.46-.24.79-.24h5.74l.37-4.27c.03-.29.15-.52.36-.7.19-.16.43-.23.73-.23.27,0,.49.08.65.23.21.16.3.38.28.67l-1.62,18.5c-.03.34-.17.6-.41.8Z"/>
    <path class="cls-15" d="M173.07,716.58c.19-.16.42-.23.69-.23s.49.08.65.23c.21.18.3.44.27.77-.06.72-.22,1.47-.47,2.25-.16.56-.4,1.22-.71,1.98,1.84,1.41,3.34,2.71,4.49,3.89,1.07,1.12,2.15,2.5,3.26,4.13.18.29.24.58.19.87-.07.25-.21.45-.42.6-.24.16-.48.21-.72.17-.29-.04-.52-.2-.7-.47-.95-1.45-1.97-2.79-3.08-4-1.06-1.16-2.33-2.33-3.79-3.49-1.03,1.81-2.07,3.3-3.11,4.47-1.19,1.34-2.7,2.67-4.51,4-.28.18-.56.25-.82.2-.24-.02-.42-.15-.54-.37-.14-.2-.17-.44-.11-.71.07-.27.27-.5.6-.7,2.49-1.61,4.55-3.8,6.18-6.58,1.34-2.28,2.09-4.36,2.26-6.25.03-.33.15-.59.37-.77ZM187.14,735.28c.51.52.73,1.22.65,2.12l-.48,5.51c-.03.31-.16.57-.4.77-.19.16-.42.24-.69.24-.29,0-.52-.08-.68-.24-.18-.2-.26-.46-.23-.77l.48-5.44c.04-.43-.04-.73-.22-.91-.21-.2-.56-.3-1.05-.3h-18.23c-.6,0-.88-.29-.83-.87.03-.58.36-.87.98-.87h18.4c1.03,0,1.8.26,2.32.77ZM188.03,730.88c-.19.18-.43.27-.69.27-.29,0-.52-.09-.68-.27-.18-.2-.26-.46-.23-.77l1.17-13.33c.03-.29.15-.52.36-.7.19-.16.43-.23.73-.23.27,0,.49.08.65.23.21.16.3.38.28.67l-1.17,13.37c-.03.31-.16.57-.4.77Z"/>
    <path class="cls-15" d="M215.46,717.45c-.07.58-.44.87-1.08.87h-10.17c-.67,0-1.14.13-1.41.4-.25.25-.4.71-.46,1.38l-.58,6.61c-.06.65.06,1.13.34,1.44.27.29.71.44,1.34.44,2.8,0,5.22-.15,7.26-.44,2.33-.34,4.46-.88,6.39-1.64.3-.13.57-.15.81-.03.22.09.37.25.46.47.07.25.05.48-.06.7-.13.25-.35.44-.65.57-2.01.74-4.34,1.28-6.99,1.61-2.13.27-4.61.4-7.46.4-1.16,0-2.05-.28-2.65-.84-.62-.58-.88-1.41-.79-2.48l.63-7.25c.08-.89.42-1.62,1.03-2.18.66-.58,1.49-.87,2.49-.87h10.64c.65,0,.95.28.9.84ZM219.31,735.25c1.67.92,2.43,2.14,2.3,3.66-.13,1.48-1.11,2.66-2.93,3.56-2.01,1.01-4.81,1.51-8.39,1.51s-6.32-.5-8.16-1.51c-1.67-.89-2.44-2.08-2.31-3.56.13-1.52,1.11-2.74,2.94-3.66,2.01-1.01,4.82-1.51,8.43-1.51s6.29.5,8.13,1.51ZM204.13,736.42c-1.46.6-2.24,1.43-2.33,2.48-.09,1.01.55,1.8,1.91,2.38,1.51.65,3.75.97,6.73.97s5.23-.32,6.83-.97c1.48-.58,2.27-1.38,2.36-2.38.09-1.05-.55-1.88-1.93-2.48-1.49-.63-3.71-.94-6.67-.94s-5.3.31-6.9.94ZM225.94,723.93c.29,0,.51.08.65.23.14.18.21.38.22.6-.02.22-.1.43-.25.6-.17.18-.38.27-.63.27h-3.73l-.57,6.55c-.03.31-.16.56-.4.74-.19.16-.42.24-.69.24s-.49-.08-.65-.24c-.18-.2-.26-.46-.23-.77l1.35-15.41c.05-.6.4-.91,1.05-.91s.98.29.93.87l-.63,7.22h3.59Z"/>
    <path class="cls-15" d="M263.1,721.21c-.05.58-.36.87-.92.87h-6.65l-.06.71c-.16,1.83.34,3.37,1.51,4.6,1.19,1.23,2.98,2.09,5.38,2.59.31.07.52.22.63.47s.11.49,0,.74c-.09.27-.27.47-.52.6-.28.16-.59.2-.92.13-2.06-.54-3.76-1.32-5.1-2.35-1.2-.92-1.97-1.91-2.32-2.99-.57,1.14-1.47,2.17-2.69,3.09-1.51,1.12-3.43,2-5.77,2.65-.3.07-.55.02-.76-.13-.21-.13-.35-.32-.42-.57-.07-.25-.05-.48.06-.71.11-.22.32-.37.64-.44,2.49-.56,4.46-1.52,5.93-2.89,1.41-1.32,2.2-2.91,2.36-4.77l.06-.74h-6.65c-.63,0-.9-.29-.83-.87.05-.58.39-.87,1.02-.87h15.24c.56,0,.81.29.76.87ZM268.43,734.41c-.03.58-.35.87-.95.87h-9.43c-.02,1.72.83,3.27,2.55,4.63,1.74,1.37,3.88,2.15,6.41,2.35.33.02.58.12.75.3.16.18.23.39.21.64-.04.22-.16.42-.35.57-.22.18-.49.26-.83.24-2.6-.22-4.84-.95-6.72-2.18-1.63-1.07-2.69-2.29-3.17-3.66-.79,1.37-2.08,2.58-3.88,3.66-2.1,1.23-4.45,1.96-7.04,2.18-.36,0-.64-.08-.85-.24-.17-.16-.25-.36-.25-.6,0-.22.09-.43.29-.6.22-.18.51-.28.87-.3,2.55-.2,4.81-.98,6.79-2.35,1.93-1.37,3.04-2.91,3.33-4.63h-9.37c-.63,0-.9-.29-.83-.87.07-.56.44-.84,1.11-.84h20.51c.63,0,.92.28.87.84ZM260.16,717.25c-.03.58-.31.87-.85.87h-8.73c-.65,0-.95-.29-.9-.87.05-.58.4-.87,1.05-.87h8.59c.58,0,.86.29.83.87ZM271.83,723.93c.58,0,.85.28.8.84-.05.58-.37.87-.95.87h-3.66l-.4,4.53c-.03.31-.16.56-.4.74-.2.18-.43.27-.69.27s-.49-.09-.65-.27c-.19-.18-.26-.42-.24-.74l1.18-13.43c.05-.6.4-.91,1.05-.91s.98.3.93.9l-.63,7.19h3.66Z"/>
    <path class="cls-15" d="M293.69,717.72c.58.56.82,1.33.74,2.32l-.35,3.96c-.45,5.15-2.16,9.22-5.13,12.22-2.75,2.8-6.2,4.33-10.34,4.6-.63.04-.94-.22-.94-.81,0-.56.32-.86.95-.91,3.88-.4,6.96-1.8,9.23-4.2,2.46-2.6,3.9-6.26,4.32-10.98l.34-3.93c.04-.47-.06-.83-.31-1.07-.27-.25-.66-.37-1.18-.37h-9.97c-.63,0-.92-.29-.86-.87.03-.56.35-.84.98-.84h9.94c1.12,0,1.98.29,2.58.87ZM301.49,743.64c-.19.18-.43.27-.69.27-.29,0-.52-.09-.68-.27-.18-.2-.26-.46-.23-.77l2.29-26.12c.03-.29.15-.53.36-.71.19-.13.43-.2.72-.2.27,0,.49.07.65.2.21.18.3.41.27.71l-2.29,26.12c-.03.31-.16.57-.4.77Z"/>
    <path class="cls-17" d="M335.61,722.76c.79.84,1.23,1.96,1.34,3.34.03.36-.06.65-.24.87-.15.21-.36.33-.62.37-.25.02-.46-.05-.66-.2-.19-.15-.29-.37-.31-.67-.11-1.33-.54-2.3-1.29-2.92-.75-.6-1.86-.9-3.32-.9-1.57,0-2.83.29-3.78.87-1.01.62-1.56,1.51-1.67,2.67-.1,1.16.19,2.06.89,2.7.73.67,2.09,1.22,4.1,1.63,2.63.54,4.45,1.32,5.47,2.33.98.97,1.39,2.36,1.24,4.16-.15,1.76-1.01,3.16-2.56,4.21-1.43.99-3.17,1.49-5.21,1.49-2.3,0-4.03-.49-5.18-1.46-1.26-1.03-1.89-2.63-1.88-4.8-.01-.3.08-.54.29-.73.16-.15.36-.24.58-.25.24-.02.44.05.6.2.17.17.26.41.27.73-.02,1.68.46,2.91,1.42,3.68.85.71,2.18,1.07,3.98,1.07,1.35,0,2.58-.31,3.7-.93,1.36-.73,2.09-1.73,2.2-3,.12-1.39-.13-2.41-.74-3.06-.74-.79-2.28-1.45-4.63-1.99-2.26-.54-3.87-1.2-4.83-1.97-1.14-.94-1.63-2.25-1.48-3.93.14-1.63.87-2.9,2.19-3.82,1.33-.9,3.09-1.35,5.29-1.35s3.79.56,4.85,1.68Z"/>
    <path class="cls-17" d="M355.1,721.78c.16.15.22.34.2.56-.02.21-.12.38-.3.53-.18.17-.42.25-.7.25h-5.7l-1.64,18.7c-.02.26-.14.48-.34.65-.18.15-.39.22-.61.22-.24,0-.44-.08-.6-.22-.15-.17-.22-.38-.2-.65l1.64-18.7h-5.95c-.45,0-.65-.26-.6-.79.05-.52.29-.79.74-.79h13.4c.28,0,.5.08.65.22Z"/>
    <path class="cls-17" d="M364.88,721.41c.3-.21.62-.31.98-.31.32,0,.61.1.87.31.28.22.47.55.59.98l5.3,19.04c.07.28.04.54-.1.79-.11.21-.28.35-.51.42-.23.08-.46.07-.67-.03-.21-.13-.36-.34-.45-.62l-1.79-6.54h-9.01l-2.96,6.54c-.14.28-.33.49-.59.62-.22.11-.43.13-.65.06-.22-.07-.37-.22-.47-.45s-.06-.49.1-.79l8.6-19.04c.19-.43.44-.76.76-.98ZM368.64,733.91l-2.94-10.67h-.08l-4.84,10.67h7.86Z"/>
    <path class="cls-17" d="M386.8,721.55c1.82,0,3.21.59,4.2,1.77.88,1.09,1.25,2.39,1.12,3.9-.1,1.14-.49,2.15-1.16,3.03-.67.86-1.53,1.47-2.57,1.83.63.06,1.17.33,1.61.81.53.56.76,1.3.68,2.22-.13,1.46-.17,2.72-.14,3.79.05.97.16,1.8.35,2.47.09.3.06.57-.07.81-.13.21-.32.36-.57.45-.23.08-.46.08-.67,0-.24-.09-.39-.26-.46-.51-.22-.75-.34-1.75-.38-3-.02-1.11.04-2.36.16-3.76.07-.79-.21-1.4-.85-1.85-.58-.43-1.32-.65-2.22-.65h-7.27l-.78,8.87c-.03.3-.14.53-.34.7-.18.17-.39.25-.61.25-.24,0-.44-.08-.6-.25-.15-.17-.22-.4-.19-.7l1.53-17.47c.07-.75.33-1.38.81-1.88.54-.56,1.23-.84,2.1-.84h6.35ZM389.04,730.01c.78-.79,1.22-1.71,1.31-2.78.09-1.09-.18-2.02-.82-2.81-.73-.86-1.75-1.29-3.06-1.29h-5.84c-.41,0-.74.13-.99.39-.21.22-.33.51-.36.87l-.61,6.94h7.08c1.31,0,2.41-.44,3.29-1.32Z"/>
    <path class="cls-17" d="M409.55,721.78c.16.15.22.34.2.56-.02.21-.12.38-.3.53-.18.17-.42.25-.7.25h-5.7l-1.64,18.7c-.02.26-.13.48-.34.65-.18.15-.39.22-.61.22-.24,0-.44-.08-.6-.22-.15-.17-.22-.38-.2-.65l1.64-18.7h-5.95c-.45,0-.65-.26-.6-.79.04-.52.29-.79.74-.79h13.4c.28,0,.5.08.65.22Z"/>
  </g>
  <g>
    <text class="cls-8" transform="translate(75.97 279.5)"><tspan x="0" y="0">방장</tspan></text>
    <g class="cls-25">
      <rect class="cls-16" x="53.44" y="300.34" width="265.94" height="39.41" rx="18.37" ry="18.37"/>
    </g>
    <text class="cls-9" transform="translate(68.21 324.27)"><tspan x="0" y="0">5월 9일 메뉴 후보 올려주세요!</tspan></text>
  </g>
  <text class="cls-8" transform="translate(347.09 386.78)"><tspan x="0" y="0">사용자 1</tspan></text>
  <g class="cls-18">
    <rect class="cls-7" x="168.28" y="407.62" width="279.95" height="39.41" rx="18.37" ry="18.37"/>
  </g>
  <text class="cls-13" transform="translate(183.87 431.55)"><tspan x="0" y="0">넵 모두 식성 필터 입력해주세요!</tspan></text>
  <text class="cls-11" transform="translate(56.76 86.35) rotate(-180)"><tspan x="0" y="0">-&gt;</tspan></text>
  <text class="cls-11" transform="translate(172.43 102.05)"><tspan x="0" y="0">그룹식사 솔루션</tspan></text>
  <g>
    <g>
      <path class="cls-2" d="M66.46,941.43c.59.02,1.11.19,1.55.51l15.45,14.6c.53.47.74,1.04.78,1.72v1.09c-.07,1.82-2,2.94-3.79,2.8v10.72c-.3,1.71-1.53,3.2-3.45,3.3h-6.81c-.52-.05-.82-.3-.92-.79v-8.43c-.11-.77-.48-1.25-1.27-1.5h-4.23c-.8.26-1.15.73-1.26,1.5v8.24c-.09.55-.29.95-.93.98h-6.81c-1.92-.09-3.17-1.6-3.44-3.31v-10.72c-1.8.13-3.65-.95-3.8-2.74v-1.22c.04-.64.27-1.18.77-1.63l15.37-14.54c.44-.42.98-.54,1.58-.59h1.22Z"/>
      <text class="cls-1" transform="translate(59.7295 1000.2931) scale(1.0569 1)"><tspan x="0" y="0">홈</tspan></text>
    </g>
    <g>
      <polygon class="cls-2" points="147.93 954.4 147.12 954.4 147.41 956.31 147.93 954.4"/>
      <path class="cls-2" d="M162.08,941.43h-25.13c-.78,0-1.41.6-1.41,1.34v32.07c0,.74.63,1.34,1.41,1.34h25.13c.78,0,1.41-.6,1.41-1.34v-32.07c0-.74-.63-1.34-1.41-1.34ZM142.72,952.56h1.44l-.62-2.66,2.83-.32.46,2.98h1.61l.71-2.59,1.28.02.53,2.57h1.6l.74-2.86h2.91l-.93,2.86h1.04v1.85h-1.65l-1.66,5.14-2.3.03-1.04-5.17h-.14l-.8,5.27h-2.88l-1.25-5.27h-1.87v-1.85ZM159.94,968.71h-20.85v-1.39h20.85v1.39ZM159.94,964.54h-20.85v-1.39h20.85v1.39Z"/>
      <polygon class="cls-2" points="152.08 954.4 151.32 954.4 151.66 956.02 152.08 954.4"/>
      <text class="cls-1" transform="translate(137.206 1000.2931) scale(1.0569 1)"><tspan x="0" y="0">스캔</tspan></text>
    </g>
    <g>
      <text class="cls-1" transform="translate(392.583 1000.2931) scale(1.0569 1)"><tspan x="0" y="0">마이페이지</tspan></text>
      <g>
        <path class="cls-2" d="M421.34,972.17c-3.36-2.57-7.9-3.68-12.39-3.89-.47-.02-.87-.1-1.36-.06-.97.08-1.89-.49-1.89-1.36l.02-20.74c0-.81,1.06-1.27,1.84-1.22l1.12.07c2.59.16,5.12.53,7.47,1.45,2.49.98,4.72,2.49,5.96,4.56v21.71c-.33-.08-.49-.31-.77-.53Z"/>
        <path class="cls-2" d="M435.74,968.44c-3.72.37-7.87,1.69-10.5,3.87-.19.16-.34.33-.61.39v-21.71c1.22-2.05,3.48-3.6,5.95-4.56,2.35-.92,4.88-1.29,7.47-1.45l1.12-.07c.78-.05,1.85.42,1.85,1.22v20.88c0,.83-1.12,1.3-1.94,1.21-.48-.05-.79.04-1.2.06s-.83.03-1.26.07l-.88.09Z"/>
      </g>
    </g>
    <g>
      <text class="cls-3" transform="translate(221.9375 1000.2931) scale(1.0569 1)"><tspan x="0" y="0">채팅</tspan></text>
      <path class="cls-4" d="M253.69,956.5c-.15-5.05-3.71-9.45-8.13-12.07-10.87-6.45-27.5-2.3-30.6,10.34l-.13,1.71-.03,2.37c.04,3.47,1.88,6.66,4.26,9.21.62,2.13-.17,4.52-1.89,6.15-.43.58-.29,1.43.38,1.79.33.18,1.41.19,1.81.13,2.9-.43,5.5-1.24,7.59-3.29,6.25,2.09,13.52,1.39,19.12-2.14,4.18-2.63,7.47-6.95,7.65-11.76l-.02-2.43Z"/>
    </g>
    <g>
      <text class="cls-1" transform="translate(310.8349 1000.2931) scale(1.0569 1)"><tspan x="0" y="0">밥약</tspan></text>
      <path class="cls-2" d="M323.79,941.43c1.23.06,2.36.56,3.08,1.53,2.77-1.1,6.08.74,6.5,3.53,2.95.4,4.89,3.51,3.73,6.12,1.06.68,1.53,1.85,1.8,2.98,1.37-.07,2.34.04,2.38,1.54.07,2.62-.96,5.8-2.33,8.1-1.69,2.84-4.24,5.26-7.31,6.74.35,1.87-.94,4.12-3.22,4.2h-10.57c-2.27-.09-3.56-2.29-3.22-4.2-5.63-2.68-9.67-8.82-9.63-14.74,0-.91.25-1.5,1.32-1.64h1.11c.16-1.15.75-2.31,1.75-2.99-1.16-2.61.79-5.72,3.73-6.11.42-2.79,3.73-4.62,6.5-3.53.67-.92,1.82-1.5,3.01-1.54h1.36ZM336.27,955.73c-.34-1.55-1.78-1.52-2.02-2.27-.12-.39-.08-.76.14-1.07.55-.74.63-1.68.13-2.47-.46-.72-1.31-1.18-2.27-1.1-.74.06-1.42-.49-1.35-1.22.08-.92-.37-1.76-1.17-2.21s-1.83-.39-2.61.12c-.63.41-1.48.2-1.79-.44-.42-.84-1.27-1.37-2.22-1.35s-1.74.53-2.15,1.35c-.31.64-1.16.85-1.79.44-.8-.52-1.82-.58-2.66-.09-.78.45-1.21,1.28-1.12,2.18.07.73-.61,1.28-1.35,1.22-.97-.08-1.82.38-2.27,1.1-.5.79-.41,1.73.13,2.47.23.31.27.68.14,1.07-.24.75-1.7.73-2.01,2.27h26.24Z"/>
    </g>
  </g>
</svg>