<?xml version="1.0" encoding="UTF-8"?>
<svg id="_레이어_1" data-name="레이어 1" xmlns="http://www.w3.org/2000/svg" xmlns:xlink="http://www.w3.org/1999/xlink" viewBox="0 0 501.67 1100.75">
  <defs>
    <style>
      .cls-1 {
        filter: url(#drop-shadow-22);
      }

      .cls-2, .cls-3 {
        fill: #d4d5da;
      }

      .cls-2, .cls-4 {
        font-family: Pretendard-SemiBold-KSCpc-EUC-H, Pretendard;
        font-size: 13.48px;
        font-weight: 600;
      }

      .cls-5 {
        fill: url(#_무제_그라디언트_12);
      }

      .cls-6 {
        font-size: 15px;
      }

      .cls-6, .cls-7, .cls-8 {
        font-family: esamanruLight, esamanruLight;
      }

      .cls-6, .cls-4, .cls-9 {
        fill: #eb5e33;
      }

      .cls-10 {
        font-family: esamanruMedium, esamanruMedium;
        font-size: 20px;
      }

      .cls-7 {
        font-size: 12.06px;
      }

      .cls-7, .cls-8 {
        fill: #888988;
        text-decoration: underline;
      }

      .cls-11, .cls-12 {
        fill: #f8f6f1;
      }

      .cls-13 {
        font-family: KIMWILDgag-Bold, 'KIMWILDgag Bold';
        font-size: 23.34px;
      }

      .cls-13, .cls-14 {
        fill: #fff;
      }

      .cls-13, .cls-12 {
        font-weight: 700;
      }

      .cls-15 {
        fill: url(#_무제_그라디언트_12-2);
      }

      .cls-8 {
        font-size: 14px;
      }

      .cls-16 {
        fill: #060404;
      }

      .cls-14 {
        stroke-miterlimit: 10;
      }

      .cls-14, .cls-17 {
        stroke: #eb5e33;
      }

      .cls-17 {
        fill: none;
        stroke-linecap: square;
        stroke-linejoin: round;
        stroke-width: 2px;
      }

      .cls-18 {
        fill: url(#_무제_그라디언트_3);
      }

      .cls-12 {
        font-family: Pretendard-ExtraBold-KSCpc-EUC-H, Pretendard;
        font-size: 25px;
      }
    </style>
    <linearGradient id="_무제_그라디언트_3" data-name="무제 그라디언트 3" x1="0" y1="67.27" x2="501.67" y2="67.27" gradientUnits="userSpaceOnUse">
      <stop offset="0" stop-color="#eb5e33"/>
      <stop offset=".41" stop-color="#eb5e33"/>
    </linearGradient>
    <filter id="drop-shadow-22" x="52.06" y="574.58" width="403.2" height="55.2" filterUnits="userSpaceOnUse">
      <feOffset dx="2.83" dy="2.83"/>
      <feGaussianBlur result="blur" stdDeviation="2.83"/>
      <feFlood flood-color="#000" flood-opacity=".5"/>
      <feComposite in2="blur" operator="in"/>
      <feComposite in="SourceGraphic"/>
    </filter>
    <linearGradient id="_무제_그라디언트_12" data-name="무제 그라디언트 12" x1="250.83" y1="772.3" x2="250.83" y2="724.61" gradientUnits="userSpaceOnUse">
      <stop offset=".46" stop-color="#eb5e33"/>
      <stop offset="1" stop-color="#e1772d"/>
    </linearGradient>
    <linearGradient id="_무제_그라디언트_12-2" data-name="무제 그라디언트 12" x1="323.15" y1="941.43" x2="323.15" y2="976.17" xlink:href="#_무제_그라디언트_12"/>
  </defs>
  <rect class="cls-11" y="53.86" width="501.67" height="1046.88"/>
  <g>
    <path class="cls-18" d="M0,0v111.05C0,124.02,10.51,134.53,23.48,134.53h454.71c12.97,0,23.48-10.51,23.48-23.48V0H0Z"/>
    <text class="cls-12" transform="translate(56.76 86.35) rotate(-180)"><tspan x="0" y="0">-&gt;</tspan></text>
    <text class="cls-12" transform="translate(169.63 102.05)"><tspan x="0" y="0">대학생 전용 밥약</tspan></text>
  </g>
  <g>
    <path class="cls-17" d="M161.27,324.67c-.09.71-.53,1.06-1.31,1.06h-9.24c-.57,0-.99.15-1.26.45-.27.27-.43.71-.48,1.3l-1.85,21.13c-.07.84,0,1.41.22,1.71.27.35.88.53,1.83.53,2.12,0,4.24-.2,6.36-.61,2.1-.41,4.02-.96,5.76-1.67.4-.19.74-.23,1.03-.12.26.11.42.3.48.57.08.27.05.54-.11.81-.16.3-.43.54-.8.73-1.98.9-4.21,1.53-6.68,1.91-1.87.3-3.95.45-6.23.45-1.55,0-2.68-.34-3.41-1.02-.7-.65-1-1.59-.89-2.81l1.88-21.49c.11-1.22.53-2.18,1.27-2.89.77-.71,1.78-1.06,3.02-1.06h9.28c.81,0,1.19.34,1.13,1.02ZM175.18,322.43c.79,0,1.15.35,1.09,1.06l-2.78,31.79c-.03.35-.19.64-.48.85-.24.22-.5.33-.8.33-.33,0-.59-.1-.79-.29-.22-.22-.32-.5-.29-.85l1.29-14.74h-5.74l-1.28,14.65c-.03.38-.2.69-.49.94-.23.19-.51.29-.84.29s-.59-.09-.79-.29c-.22-.24-.32-.56-.28-.93l2.78-31.75c.06-.71.48-1.06,1.27-1.06s1.19.35,1.13,1.06l-1.32,15.1h5.74l1.32-15.1c.06-.7.49-1.06,1.27-1.06Z"/>
    <path class="cls-17" d="M208.25,327.88c.2.22.28.46.26.73s-.14.52-.35.73c-.24.22-.53.33-.88.33h-19.46c-.76,0-1.11-.35-1.05-1.06.06-.68.47-1.02,1.23-1.02h19.38c.38,0,.67.09.87.29ZM204.48,333.22c1.51,1.03,2.2,2.31,2.07,3.83-.13,1.44-1.04,2.69-2.73,3.75-1.89,1.17-4.32,1.75-7.28,1.75s-5.36-.58-7.05-1.75c-1.51-1.06-2.2-2.31-2.07-3.75.13-1.52,1.04-2.79,2.74-3.83,1.86-1.14,4.31-1.71,7.35-1.71s5.28.57,6.97,1.71ZM212.65,346.4c.63.57.89,1.4.8,2.48l-.56,6.35c-.03.38-.2.69-.49.94-.23.19-.51.29-.84.29s-.59-.11-.79-.33c-.22-.24-.32-.56-.28-.94l.53-6.11c.04-.51-.04-.88-.27-1.1-.25-.24-.66-.37-1.23-.37h-20.97c-.73,0-1.07-.35-1-1.06.03-.68.43-1.02,1.19-1.02h21.01c1.27,0,2.24.28,2.89.85ZM191.82,334.6c-1.25.68-1.92,1.49-2,2.44-.08.92.45,1.7,1.59,2.32,1.27.71,3.04,1.06,5.32,1.06s4.06-.35,5.42-1.06c1.25-.62,1.91-1.4,1.99-2.32.08-.95-.44-1.76-1.58-2.44-1.27-.71-3.01-1.06-5.24-1.06s-4.09.35-5.51,1.06ZM204.52,323.89c-.03.71-.42,1.06-1.15,1.06h-10.75c-.76,0-1.11-.35-1.05-1.06.06-.68.47-1.02,1.23-1.02h10.67c.76,0,1.11.34,1.05,1.02ZM219.34,332.24c.71,0,1.03.34.97,1.02-.06.71-.45,1.06-1.15,1.06h-4.44l-.48,5.5c-.03.38-.2.68-.49.9-.24.22-.52.33-.84.33s-.59-.11-.79-.33c-.23-.22-.32-.51-.29-.89l1.42-16.29c.06-.73.49-1.1,1.28-1.1s1.19.37,1.13,1.09l-.76,8.72h4.44Z"/>
    <path class="cls-17" d="M237.33,323.41c.23-.19.53-.29.88-.29.32.03.58.15.78.37.25.27.35.61.32,1.02-.07.84-.23,1.66-.46,2.44-.21.79-.52,1.75-.95,2.89,1.6,1.55,2.94,3,4.01,4.35,1.22,1.52,2.31,3.18,3.27,4.97.21.35.26.71.15,1.06-.11.33-.31.57-.59.73-.29.16-.57.2-.87.12-.35-.08-.6-.3-.76-.65-.88-1.74-1.84-3.31-2.88-4.72-.93-1.22-2.01-2.46-3.26-3.7-1.13,2.01-2.27,3.73-3.42,5.17-1.27,1.55-2.8,3.05-4.59,4.52-.29.22-.6.31-.92.29-.33,0-.59-.11-.79-.33-.2-.22-.29-.46-.26-.73.05-.33.26-.62.61-.9,2.89-2.31,5.17-5.01,6.86-8.1,1.39-2.58,2.19-5.07,2.41-7.49.04-.43.19-.77.46-1.02ZM255.18,345.96c2.13,1.09,3.11,2.56,2.95,4.44-.16,1.79-1.4,3.23-3.72,4.31-2.58,1.22-6.24,1.83-10.99,1.83s-8.22-.61-10.58-1.83c-2.08-1.08-3.04-2.52-2.88-4.31.16-1.87,1.38-3.35,3.65-4.44,2.55-1.22,6.18-1.83,10.91-1.83s8.3.61,10.67,1.83ZM235.32,347.38c-1.83.71-2.79,1.71-2.91,3.01-.11,1.22.69,2.18,2.39,2.89,1.91.79,4.85,1.18,8.81,1.18s7.02-.39,9.1-1.18c1.88-.71,2.87-1.67,2.98-2.89.11-1.3-.71-2.31-2.46-3.01-1.91-.76-4.88-1.14-8.9-1.14s-6.99.38-9.01,1.14ZM258.55,322.43c.79,0,1.15.39,1.08,1.18l-1.61,18.44c-.04.43-.21.79-.5,1.06-.24.24-.51.37-.81.37-.33,0-.59-.12-.78-.37-.22-.24-.32-.58-.28-1.02l.63-7.16h-5.82l-.54,6.19c-.03.38-.2.68-.49.9-.24.22-.52.33-.84.33s-.59-.11-.79-.33c-.23-.22-.32-.51-.29-.9l1.54-17.63c.06-.7.49-1.06,1.27-1.06s1.19.35,1.13,1.05l-.82,9.41h5.82l.82-9.32c.07-.76.49-1.14,1.28-1.14Z"/>
    <path class="cls-17" d="M301.38,326.5c1.39,1.82,1.96,4.06,1.73,6.72-.23,2.66-1.2,4.9-2.91,6.72-1.89,2.04-4.28,3.05-7.19,3.05s-5.22-1.02-6.78-3.05c-1.38-1.84-1.96-4.08-1.73-6.72.23-2.66,1.2-4.9,2.91-6.72,1.91-2.04,4.35-3.05,7.31-3.05s5.12,1.02,6.65,3.05ZM287.95,351.53c-.06.73.03,1.24.28,1.51.25.25.77.37,1.56.37h21.94c.68,0,.99.34.93,1.02-.06.71-.43,1.06-1.11,1.06h-22.35c-1.22,0-2.16-.3-2.81-.9-.71-.62-1-1.53-.9-2.73l.47-5.41c.04-.43.19-.77.46-1.02.24-.22.53-.33.88-.33.33,0,.59.11.79.33.25.24.36.58.32,1.02l-.45,5.09ZM289.08,327.92c-1.24,1.41-1.95,3.17-2.13,5.29-.19,2.12.22,3.88,1.21,5.29,1.11,1.6,2.79,2.4,5.04,2.4s3.99-.8,5.38-2.4c1.26-1.41,1.99-3.17,2.17-5.29.19-2.12-.23-3.88-1.25-5.29-1.11-1.6-2.76-2.4-4.96-2.4s-4.05.8-5.46,2.4ZM311.68,346.93c-.24.22-.52.32-.84.32-.35,0-.63-.11-.83-.32-.22-.24-.32-.57-.28-.98l1.96-22.39c.03-.35.18-.64.44-.85.23-.19.53-.28.88-.28.33,0,.59.09.79.28.25.19.37.46.34.81l-1.96,22.43c-.04.41-.2.73-.49.98Z"/>
    <path class="cls-17" d="M358.28,340.05c-.06.68-.47,1.02-1.23,1.02h-31.87c-.73,0-1.04-.34-.93-1.02.08-.65.52-.98,1.31-.98h31.59c.79,0,1.17.33,1.14.98ZM351.59,346.32c2.14,1,3.12,2.43,2.96,4.27-.16,1.79-1.39,3.2-3.71,4.23-2.54,1.14-6.21,1.71-11.02,1.71s-8.42-.57-10.76-1.71c-2.11-1.03-3.08-2.44-2.93-4.23.16-1.82,1.38-3.24,3.67-4.27,2.54-1.14,6.23-1.71,11.06-1.71s8.4.57,10.72,1.71ZM356.84,324.42c-.06.71-.43,1.06-1.11,1.06h-12.01c-.03,1.84,1.17,3.47,3.6,4.88,2.4,1.41,5.43,2.31,9.09,2.69.38.03.65.16.82.41.14.24.17.52.09.81-.08.33-.25.58-.51.77-.29.22-.62.3-1,.24-3.36-.38-6.31-1.22-8.86-2.52-2.41-1.25-3.98-2.65-4.68-4.19-.95,1.55-2.74,2.95-5.37,4.19-2.75,1.3-5.82,2.14-9.22,2.52-.44.05-.8-.03-1.08-.24-.23-.19-.35-.45-.38-.77-.06-.3.02-.57.23-.81.24-.24.59-.38,1.05-.41,3.56-.35,6.66-1.23,9.31-2.65,2.7-1.44,4.22-3.08,4.54-4.92h-11.93c-.76,0-1.1-.35-1.01-1.06.06-.68.47-1.02,1.23-1.02h26.25c.68,0,.99.34.93,1.02ZM331.44,347.71c-1.85.65-2.83,1.62-2.94,2.89-.11,1.22.71,2.14,2.44,2.77,1.92.73,4.94,1.1,9.06,1.1s7.17-.37,9.21-1.1c1.87-.62,2.86-1.55,2.97-2.77.11-1.27-.71-2.24-2.47-2.89-1.92-.71-4.93-1.06-9.03-1.06s-7.21.35-9.25,1.06Z"/>
  </g>
  <path class="cls-9" d="M331.38,246.48l-.67,9.22-1.77,20.4c-5.04,2.43-10.95,2.98-16.06,2.3.12-1.87.32-3.38.71-5.11l12.4.77.97-9.97,2.38-16.26-23.97-.14-.76,5.99-.43,4.97c4.29-.09,8.09-.05,12.15.43l-.52,4.36-11.94-.54c-1.61,8.66-2.7,17.12-3.37,25.89l11.11,1.19c5.36.57,10.65.31,16.12-.86l-.26,3.79,11.93,2.15,4.25-48.57h-12.28Z"/>
  <path class="cls-9" d="M183.91,248.34l-22.49.13-.59,3.41-.77,8.96c3.5-.27,6.8-.45,10.29-.21-.26,3.71-.7,7.18-1.74,10.72-1.01,3.13-2.53,5.92-4.93,8.24-1.74,1.55-3.56,2.69-5.66,3.71l4.87,11.41c6.94-2.61,12.21-6.23,14.93-13.25.83-2.14,1.52-4.24,1.9-6.49l2.21-13.06,4.05-.31c-.68,7.47-2.22,14.77-7.68,20.81l9.18,7.9c2.41-2.71,3.92-5.58,5.26-8.75,1.85-4.78,2.89-9.57,3.51-14.6l2.13-17.43-14.86,1.35.4-2.52Z"/>
  <path class="cls-9" d="M274.49,248.17h-15.78c-.21,0-.63.07-.75.2-.12.13-.26.52-.28.71l-.98,10.58,6.07-.12c-.5,8.13-1.95,14.97-8.92,20.27l7.73,7.12c3.29-2.03,5.77-4.89,7.38-8.35,1.2-2.76,2.14-5.49,2.57-8.42l1.36-9.28,3.37-.24-1.44,9.43c-1.08,4.65-2.71,9.08-5.33,13.29l10.23,4.38c2.13-3.38,3.4-7.02,4.35-10.82,1-4.24,1.61-8.31,2.2-12.61l1.71-15.41-13.7,1.33.2-2.05Z"/>
  <path class="cls-9" d="M223.8,274.16c.08-4.92.62-9.62,1.48-14.47.72-4.05,1.58-7.8,2.7-11.97h-12.12c-1.64,7.34-2.82,14.54-3.63,21.99-.5,6.14-.65,12.02-.3,18.1l13.35-1.98c4.75-.71,9.36-2.01,14.01-3.57l-1.32-11.88c-4.81,2.07-9.33,3.39-14.17,3.79Z"/>
  <polygon class="cls-9" points="200.28 246.54 196.57 289.64 208.19 288.42 211.85 246.49 200.28 246.54"/>
  <polygon class="cls-9" points="301.36 246.49 289.71 246.49 288.99 257.71 286.25 288.14 297.64 289.15 298.24 281.1 301.36 246.49"/>
  <polygon class="cls-9" points="243.29 246.52 239.79 286.82 251.4 286.72 254.91 246.52 243.29 246.52"/>
  <text class="cls-6" transform="translate(178.33 424.59)"><tspan x="0" y="0">안녕하세요, 홍길동님</tspan><tspan x="-107.49" y="25">안전한 밥약 문화를 위해 인증절차를 거치고있습니다.</tspan><tspan x="-162.49" y="50">이메일 주소 인증을 완료하시면, 밥약 서비스를 이용하실 수 있습니다.</tspan></text>
  <text class="cls-7" transform="translate(151.43 649.23)"><tspan x="0" y="0">인증번호는 10분 이내 완료해주세요.</tspan></text>
  <text class="cls-10" transform="translate(189.17 561.55)"><tspan class="cls-16" x="0" y="0">이메일 입력</tspan><tspan class="cls-9" x="106.66" y="0" xml:space="preserve"> *</tspan></text>
  <g class="cls-1">
    <rect class="cls-14" x="58.46" y="580.98" width="384.74" height="36.74" rx="18.37" ry="18.37"/>
  </g>
  <text class="cls-8" transform="translate(212.14 603.28)"><tspan x="0" y="0">@univ.ac.kr</tspan></text>
  <rect class="cls-5" x="161.01" y="724.61" width="179.65" height="47.7" rx="23.85" ry="23.85"/>
  <text class="cls-13" transform="translate(176.92 754.2)"><tspan x="0" y="0">인증번호 발송</tspan></text>
  <g>
    <g>
      <path class="cls-3" d="M66.46,941.43c.59.02,1.11.19,1.55.51l15.45,14.6c.53.47.74,1.04.78,1.72v1.09c-.07,1.82-2,2.94-3.79,2.8v10.72c-.3,1.71-1.53,3.2-3.45,3.3h-6.81c-.52-.05-.82-.3-.92-.79v-8.43c-.11-.77-.48-1.25-1.27-1.5h-4.23c-.8.26-1.15.73-1.26,1.5v8.24c-.09.55-.29.95-.93.98h-6.81c-1.92-.09-3.17-1.6-3.44-3.31v-10.72c-1.8.13-3.65-.95-3.8-2.74v-1.22c.04-.64.27-1.18.77-1.63l15.37-14.54c.44-.42.98-.54,1.58-.59h1.22Z"/>
      <text class="cls-2" transform="translate(59.7301 1000.2933) scale(1.0569 1)"><tspan x="0" y="0">홈</tspan></text>
    </g>
    <g>
      <polygon class="cls-3" points="147.93 954.4 147.12 954.4 147.41 956.31 147.93 954.4"/>
      <path class="cls-3" d="M162.08,941.43h-25.13c-.78,0-1.41.6-1.41,1.34v32.07c0,.74.63,1.34,1.41,1.34h25.13c.78,0,1.41-.6,1.41-1.34v-32.07c0-.74-.63-1.34-1.41-1.34ZM142.72,952.56h1.44l-.62-2.66,2.83-.32.46,2.98h1.61l.71-2.59,1.28.02.53,2.57h1.6l.74-2.86h2.91l-.93,2.86h1.04v1.85h-1.65l-1.66,5.14-2.3.03-1.04-5.17h-.14l-.8,5.27h-2.88l-1.25-5.27h-1.87v-1.85ZM159.94,968.71h-20.85v-1.39h20.85v1.39ZM159.94,964.54h-20.85v-1.39h20.85v1.39Z"/>
      <polygon class="cls-3" points="152.08 954.4 151.32 954.4 151.66 956.02 152.08 954.4"/>
      <text class="cls-2" transform="translate(137.2066 1000.2933) scale(1.0569 1)"><tspan x="0" y="0">스캔</tspan></text>
    </g>
    <g>
      <text class="cls-2" transform="translate(392.5836 1000.2933) scale(1.0569 1)"><tspan x="0" y="0">마이페이지</tspan></text>
      <g>
        <path class="cls-3" d="M421.34,972.17c-3.36-2.57-7.9-3.68-12.39-3.89-.47-.02-.87-.1-1.36-.06-.97.08-1.89-.49-1.89-1.36l.02-20.74c0-.81,1.06-1.27,1.84-1.22l1.12.07c2.59.16,5.12.53,7.47,1.45,2.49.98,4.72,2.49,5.96,4.56v21.71c-.33-.08-.49-.31-.77-.53Z"/>
        <path class="cls-3" d="M435.74,968.44c-3.72.37-7.87,1.69-10.5,3.87-.19.16-.34.33-.61.39v-21.71c1.22-2.05,3.48-3.6,5.95-4.56s4.88-1.29,7.47-1.45l1.12-.07c.78-.05,1.85.42,1.85,1.22v20.88c0,.83-1.12,1.3-1.94,1.21-.48-.05-.79.04-1.2.06s-.83.03-1.26.07l-.88.09Z"/>
      </g>
    </g>
    <g>
      <text class="cls-2" transform="translate(221.9381 1000.2933) scale(1.0569 1)"><tspan x="0" y="0">채팅</tspan></text>
      <path class="cls-3" d="M253.69,956.5c-.15-5.05-3.71-9.45-8.13-12.07-10.87-6.45-27.5-2.3-30.6,10.34l-.13,1.71-.03,2.37c.04,3.47,1.88,6.66,4.26,9.21.62,2.13-.17,4.52-1.89,6.15-.43.58-.29,1.43.38,1.79.33.18,1.41.19,1.81.13,2.9-.43,5.5-1.24,7.59-3.29,6.25,2.09,13.52,1.39,19.12-2.14,4.18-2.63,7.47-6.95,7.65-11.76l-.02-2.43Z"/>
    </g>
    <g>
      <text class="cls-4" transform="translate(310.8346 1000.2933) scale(1.0569 1)"><tspan x="0" y="0">밥약</tspan></text>
      <path class="cls-15" d="M323.79,941.43c1.23.06,2.36.56,3.08,1.53,2.77-1.1,6.08.74,6.5,3.53,2.95.4,4.89,3.51,3.73,6.12,1.06.68,1.53,1.85,1.8,2.98,1.37-.07,2.34.04,2.38,1.54.07,2.62-.96,5.8-2.33,8.1-1.69,2.84-4.24,5.26-7.31,6.74.35,1.87-.94,4.12-3.22,4.2h-10.57c-2.27-.09-3.56-2.29-3.22-4.2-5.63-2.68-9.67-8.82-9.63-14.74,0-.91.25-1.5,1.32-1.64h1.11c.16-1.15.75-2.31,1.75-2.99-1.16-2.61.79-5.72,3.73-6.11.42-2.79,3.73-4.62,6.5-3.53.67-.92,1.82-1.5,3.01-1.54h1.36ZM336.27,955.73c-.34-1.55-1.78-1.52-2.02-2.27-.12-.39-.08-.76.14-1.07.55-.74.63-1.68.13-2.47-.46-.72-1.31-1.18-2.27-1.1-.74.06-1.42-.49-1.35-1.22.08-.92-.37-1.76-1.17-2.21s-1.83-.39-2.61.12c-.63.41-1.48.2-1.79-.44-.42-.84-1.27-1.37-2.22-1.35-.91.01-1.74.53-2.15,1.35-.31.64-1.16.85-1.79.44-.8-.52-1.82-.58-2.66-.09-.78.45-1.21,1.28-1.12,2.18.07.73-.61,1.28-1.35,1.22-.97-.08-1.82.38-2.27,1.1-.5.79-.41,1.73.13,2.47.23.31.27.68.14,1.07-.24.75-1.7.73-2.01,2.27h26.24Z"/>
    </g>
  </g>
</svg>