<?xml version="1.0" encoding="UTF-8"?>
<svg id="_레이어_1" data-name="레이어 1" xmlns="http://www.w3.org/2000/svg" xmlns:xlink="http://www.w3.org/1999/xlink" viewBox="0 0 501.67 1100.75">
  <defs>
    <style>
      .cls-1 {
        font-size: 49.34px;
      }

      .cls-1, .cls-2 {
        font-family: KIMWILDgag-Bold, 'KIMWILDgag Bold';
      }

      .cls-1, .cls-2, .cls-3 {
        font-weight: 700;
      }

      .cls-1, .cls-4, .cls-5, .cls-6 {
        fill: #eb5e33;
      }

      .cls-7 {
        stroke: url(#_무제_그라디언트_3-6);
      }

      .cls-7, .cls-8, .cls-9, .cls-10, .cls-11 {
        stroke-miterlimit: 10;
        stroke-width: 4px;
      }

      .cls-7, .cls-8, .cls-10, .cls-11 {
        fill: none;
      }

      .cls-12 {
        filter: url(#drop-shadow-34);
      }

      .cls-13, .cls-14 {
        fill: #d4d5da;
      }

      .cls-13, .cls-4 {
        font-family: Pretendard-SemiBold-KSCpc-EUC-H, Pretendard;
        font-size: 13.48px;
        font-weight: 600;
      }

      .cls-15 {
        fill: url(#_무제_그라디언트_12);
      }

      .cls-16, .cls-2 {
        fill: #fff;
      }

      .cls-8 {
        stroke: url(#_무제_그라디언트_3-5);
        stroke-dasharray: 4.19 4.19 4.19 4.19 4.19 4.19;
      }

      .cls-9 {
        fill: url(#_무제_그라디언트_2);
        stroke: url(#_무제_그라디언트_3-8);
      }

      .cls-17 {
        fill: #888988;
        font-size: 15px;
      }

      .cls-18, .cls-3 {
        fill: #f8f6f1;
      }

      .cls-2 {
        font-size: 23.34px;
      }

      .cls-19 {
        fill: url(#_무제_그라디언트_12-2);
      }

      .cls-20 {
        font-family: esamanruMedium, esamanruMedium;
      }

      .cls-21 {
        fill: url(#_무제_그라디언트_3-2);
      }

      .cls-22 {
        fill: url(#_무제_그라디언트_3-7);
      }

      .cls-23 {
        fill: #5a5b5b;
      }

      .cls-10 {
        stroke: url(#_무제_그라디언트_3-4);
        stroke-dasharray: 4.19 4.19 4.19 4.19;
      }

      .cls-5 {
        font-size: 20px;
      }

      .cls-24 {
        letter-spacing: -.04em;
      }

      .cls-11 {
        stroke: url(#_무제_그라디언트_3-3);
      }

      .cls-25 {
        fill: url(#_무제_그라디언트_3);
      }

      .cls-26 {
        filter: url(#drop-shadow-35);
      }

      .cls-3 {
        font-family: Pretendard-ExtraBold-KSCpc-EUC-H, Pretendard;
        font-size: 25px;
      }
    </style>
    <linearGradient id="_무제_그라디언트_3" data-name="무제 그라디언트 3" x1="0" y1="67.27" x2="501.67" y2="67.27" gradientUnits="userSpaceOnUse">
      <stop offset="0" stop-color="#eb5e33"/>
      <stop offset=".41" stop-color="#eb5e33"/>
    </linearGradient>
    <linearGradient id="_무제_그라디언트_12" data-name="무제 그라디언트 12" x1="323.14" y1="941.43" x2="323.14" y2="976.17" gradientUnits="userSpaceOnUse">
      <stop offset=".46" stop-color="#eb5e33"/>
      <stop offset="1" stop-color="#e1772d"/>
    </linearGradient>
    <filter id="drop-shadow-34" x="281.09" y="832.34" width="154.08" height="65.04" filterUnits="userSpaceOnUse">
      <feOffset dx="2.83" dy="2.83"/>
      <feGaussianBlur result="blur" stdDeviation="2.83"/>
      <feFlood flood-color="#000" flood-opacity=".5"/>
      <feComposite in2="blur" operator="in"/>
      <feComposite in="SourceGraphic"/>
    </filter>
    <linearGradient id="_무제_그라디언트_12-2" data-name="무제 그라디언트 12" x1="355.32" y1="885.78" x2="355.32" y2="838.09" xlink:href="#_무제_그라디언트_12"/>
    <filter id="drop-shadow-35" x="61.01" y="635.06" width="385.2" height="96" filterUnits="userSpaceOnUse">
      <feOffset dx="2.83" dy="2.83"/>
      <feGaussianBlur result="blur-2" stdDeviation="2.83"/>
      <feFlood flood-color="#000" flood-opacity=".5"/>
      <feComposite in2="blur-2" operator="in"/>
      <feComposite in="SourceGraphic"/>
    </filter>
    <linearGradient id="_무제_그라디언트_3-2" data-name="무제 그라디언트 3" x1="250.83" y1="719.62" x2="250.83" y2="640.87" xlink:href="#_무제_그라디언트_3"/>
    <linearGradient id="_무제_그라디언트_3-3" data-name="무제 그라디언트 3" x1="133.81" y1="432.23" x2="133.81" y2="428.23" xlink:href="#_무제_그라디언트_3"/>
    <linearGradient id="_무제_그라디언트_3-4" data-name="무제 그라디언트 3" x1="146.33" y1="432.23" x2="146.33" y2="428.23" xlink:href="#_무제_그라디언트_3"/>
    <linearGradient id="_무제_그라디언트_3-5" data-name="무제 그라디언트 3" x1="242.68" y1="432.23" x2="242.68" y2="428.23" xlink:href="#_무제_그라디언트_3"/>
    <linearGradient id="_무제_그라디언트_3-6" data-name="무제 그라디언트 3" x1="332.7" y1="432.23" x2="332.7" y2="428.23" xlink:href="#_무제_그라디언트_3"/>
    <linearGradient id="_무제_그라디언트_3-7" data-name="무제 그라디언트 3" x1="141.45" y1="498.43" x2="141.45" y2="362.03" xlink:href="#_무제_그라디언트_3"/>
    <linearGradient id="_무제_그라디언트_2" data-name="무제 그라디언트 2" x1="360.21" y1="498.43" x2="360.21" y2="362.03" gradientUnits="userSpaceOnUse">
      <stop offset="0" stop-color="#eb5e33" stop-opacity="0"/>
      <stop offset=".44" stop-color="#f8f6f1"/>
    </linearGradient>
    <linearGradient id="_무제_그라디언트_3-8" data-name="무제 그라디언트 3" x1="290.01" y1="430.23" x2="430.41" y2="430.23" xlink:href="#_무제_그라디언트_3"/>
  </defs>
  <rect class="cls-18" y="53.86" width="501.67" height="1046.88"/>
  <path class="cls-25" d="M0,0v111.05C0,124.02,10.51,134.53,23.48,134.53h454.71c12.97,0,23.48-10.51,23.48-23.48V0H0Z"/>
  <g>
    <g>
      <path class="cls-14" d="M66.45,941.43c.59.02,1.11.19,1.55.51l15.45,14.6c.53.47.74,1.04.78,1.72v1.09c-.07,1.82-2,2.94-3.79,2.8v10.72c-.3,1.71-1.53,3.2-3.45,3.3h-6.81c-.52-.05-.82-.3-.92-.79v-8.43c-.11-.77-.48-1.25-1.27-1.5h-4.23c-.8.26-1.15.73-1.26,1.5v8.24c-.09.55-.29.95-.93.98h-6.81c-1.92-.09-3.17-1.6-3.44-3.31v-10.72c-1.8.13-3.65-.95-3.8-2.74v-1.22c.04-.64.27-1.18.77-1.63l15.37-14.54c.44-.42.98-.54,1.58-.59h1.22Z"/>
      <text class="cls-13" transform="translate(59.725 1000.2933) scale(1.0569 1)"><tspan x="0" y="0">홈</tspan></text>
    </g>
    <g>
      <polygon class="cls-14" points="147.93 954.4 147.11 954.4 147.4 956.31 147.93 954.4"/>
      <path class="cls-14" d="M162.08,941.43h-25.13c-.78,0-1.41.6-1.41,1.34v32.07c0,.74.63,1.34,1.41,1.34h25.13c.78,0,1.41-.6,1.41-1.34v-32.07c0-.74-.63-1.34-1.41-1.34ZM142.72,952.56h1.44l-.62-2.66,2.83-.32.46,2.98h1.61l.71-2.59,1.28.02.53,2.57h1.6l.74-2.86h2.91l-.93,2.86h1.04v1.85h-1.65l-1.66,5.14-2.3.03-1.04-5.17h-.14l-.8,5.27h-2.88l-1.25-5.27h-1.87v-1.85ZM159.94,968.71h-20.85v-1.39h20.85v1.39ZM159.94,964.54h-20.85v-1.39h20.85v1.39Z"/>
      <polygon class="cls-14" points="152.07 954.4 151.32 954.4 151.66 956.02 152.07 954.4"/>
      <text class="cls-13" transform="translate(137.2016 1000.2933) scale(1.0569 1)"><tspan x="0" y="0">스캔</tspan></text>
    </g>
    <g>
      <text class="cls-13" transform="translate(392.5785 1000.2933) scale(1.0569 1)"><tspan x="0" y="0">마이페이지</tspan></text>
      <g>
        <path class="cls-14" d="M421.34,972.17c-3.36-2.57-7.9-3.68-12.39-3.89-.47-.02-.87-.1-1.36-.06-.97.08-1.89-.49-1.89-1.36l.02-20.74c0-.81,1.06-1.27,1.84-1.22l1.12.07c2.59.16,5.12.53,7.47,1.45,2.49.98,4.72,2.49,5.96,4.56v21.71c-.33-.08-.49-.31-.77-.53Z"/>
        <path class="cls-14" d="M435.73,968.44c-3.72.37-7.87,1.69-10.5,3.87-.19.16-.34.33-.61.39v-21.71c1.22-2.05,3.48-3.6,5.95-4.56s4.88-1.29,7.47-1.45l1.12-.07c.78-.05,1.85.42,1.85,1.22v20.88c0,.83-1.12,1.3-1.94,1.21-.48-.05-.79.04-1.2.06s-.83.03-1.26.07l-.88.09Z"/>
      </g>
    </g>
    <g>
      <text class="cls-13" transform="translate(221.933 1000.2933) scale(1.0569 1)"><tspan x="0" y="0">채팅</tspan></text>
      <path class="cls-14" d="M253.68,956.5c-.15-5.05-3.71-9.45-8.13-12.07-10.87-6.45-27.5-2.3-30.6,10.34l-.13,1.71-.03,2.37c.04,3.47,1.88,6.66,4.26,9.21.62,2.13-.17,4.52-1.89,6.15-.43.58-.29,1.43.38,1.79.33.18,1.41.19,1.81.13,2.9-.43,5.5-1.24,7.59-3.29,6.25,2.09,13.52,1.39,19.12-2.14,4.18-2.63,7.47-6.95,7.65-11.76l-.02-2.43Z"/>
    </g>
    <g>
      <text class="cls-4" transform="translate(310.8295 1000.2933) scale(1.0569 1)"><tspan x="0" y="0">밥약</tspan></text>
      <path class="cls-15" d="M323.78,941.43c1.23.06,2.36.56,3.08,1.53,2.77-1.1,6.08.74,6.5,3.53,2.95.4,4.89,3.51,3.73,6.12,1.06.68,1.53,1.85,1.8,2.98,1.37-.07,2.34.04,2.38,1.54.07,2.62-.96,5.8-2.33,8.1-1.69,2.84-4.24,5.26-7.31,6.74.35,1.87-.94,4.12-3.22,4.2h-10.57c-2.27-.09-3.56-2.29-3.22-4.2-5.63-2.68-9.67-8.82-9.63-14.74,0-.91.25-1.5,1.32-1.64h1.11c.16-1.15.75-2.31,1.75-2.99-1.16-2.61.79-5.72,3.73-6.11.42-2.79,3.73-4.62,6.5-3.53.67-.92,1.82-1.5,3.01-1.54h1.36ZM336.26,955.73c-.34-1.55-1.78-1.52-2.02-2.27-.12-.39-.08-.76.14-1.07.55-.74.63-1.68.13-2.47-.46-.72-1.31-1.18-2.27-1.1-.74.06-1.42-.49-1.35-1.22.08-.92-.37-1.76-1.17-2.21s-1.83-.39-2.61.12c-.63.41-1.48.2-1.79-.44-.42-.84-1.27-1.37-2.22-1.35-.91.01-1.74.53-2.15,1.35-.31.64-1.16.85-1.79.44-.8-.52-1.82-.58-2.66-.09-.78.45-1.21,1.28-1.12,2.18.07.73-.61,1.28-1.35,1.22-.97-.08-1.82.38-2.27,1.1-.5.79-.41,1.73.13,2.47.23.31.27.68.14,1.07-.24.75-1.7.73-2.01,2.27h26.24Z"/>
    </g>
  </g>
  <text class="cls-1" transform="translate(134.88 283.45) skewX(-5)"><tspan x="0" y="0">밥약 매칭!</tspan></text>
  <text class="cls-3" transform="translate(56.75 86.34) rotate(-180)"><tspan x="0" y="0">-&gt;</tspan></text>
  <text class="cls-3" transform="translate(183.61 102.05)"><tspan x="0" y="0">밥약 매칭중..</tspan><tspan class="cls-24" x="128.2" y="0">.</tspan></text>
  <rect class="cls-23" x="78" y="838.09" width="192" height="47.7" rx="23.85" ry="23.85"/>
  <text class="cls-2" transform="translate(85.23 867.68)"><tspan x="0" y="0">다른 파트너 매칭</tspan></text>
  <g class="cls-12">
    <rect class="cls-19" x="286.97" y="838.09" width="136.7" height="47.7" rx="23.85" ry="23.85"/>
  </g>
  <text class="cls-2" transform="translate(304.75 867.68)"><tspan x="0" y="0">매칭 수락</tspan></text>
  <g class="cls-26">
    <rect class="cls-21" x="66.83" y="640.87" width="368" height="78.74"/>
  </g>
  <g>
    <path class="cls-16" d="M98.72,670.11c.43.38.61.89.55,1.54l-1.13,12.94c-.06.69-.3,1.22-.71,1.56s-.99.52-1.73.52h-5.43c-.81,0-1.38-.18-1.71-.54-.32-.33-.45-.84-.39-1.52l1.12-12.8c.06-.65.29-1.18.71-1.59.43-.43,1-.64,1.69-.64h5.33c.73,0,1.29.17,1.68.52ZM97.69,671.03c-.16-.16-.45-.24-.86-.24h-5.05c-.36,0-.63.1-.81.28-.16.19-.25.47-.29.83l-1.1,12.58c-.03.36.03.62.17.76.13.14.39.21.79.21h5.05c.39,0,.68-.06.85-.19.19-.14.29-.39.33-.76l1.12-12.75c.03-.33-.04-.58-.2-.73ZM107.13,678.19c.38,0,.55.19.52.57-.04.39-.24.59-.62.59h-2.63l-.76,8.65c-.02.21-.11.37-.28.5-.14.13-.3.19-.49.19s-.34-.06-.46-.19c-.13-.13-.19-.29-.17-.5l1.62-18.48c.02-.21.1-.37.26-.5.13-.09.3-.14.49-.14s.34.05.46.14c.15.13.21.29.19.5l-.76,8.67h2.63Z"/>
    <path class="cls-16" d="M122.8,670.01c.38.32.55.77.5,1.35l-.4,4.6c-.05.6-.27,1.06-.67,1.37-.39.33-.96.5-1.7.5h-5.05c-.4,0-.68.09-.85.26-.16.17-.25.47-.29.88l-.46,5.31c-.04.44.03.75.2.92.17.21.5.31.97.31,1.82,0,3.59-.16,5.33-.47,1.67-.3,3.1-.71,4.3-1.23.43-.22.71-.13.83.26.14.4,0,.69-.41.9-1.36.58-3.04,1.03-5.02,1.33-1.76.28-3.59.43-5.49.43-.79,0-1.36-.22-1.72-.66-.33-.41-.46-.97-.4-1.68l.49-5.59c.06-.65.29-1.17.71-1.56.43-.41.99-.62,1.69-.62h5.09c.39,0,.67-.06.82-.19.17-.11.27-.34.3-.69l.35-4.05c.03-.32-.06-.55-.27-.71-.21-.14-.55-.21-1.02-.21h-6.37c-.49,0-.71-.2-.66-.59.04-.4.3-.59.81-.59h6.78c.7,0,1.24.15,1.62.45ZM131.4,678.19c.38,0,.55.19.52.57-.04.39-.24.59-.62.59h-2.63l-.76,8.65c-.02.21-.11.37-.28.5-.14.13-.3.19-.49.19s-.34-.06-.46-.19c-.13-.13-.19-.29-.17-.5l1.62-18.48c.02-.21.1-.37.26-.5.13-.09.3-.14.49-.14s.34.05.46.14c.15.13.21.29.19.5l-.76,8.67h2.63Z"/>
    <path class="cls-16" d="M148.74,669.56c.13.13.19.27.18.43-.01.16-.09.3-.23.43-.15.13-.34.19-.56.19h-7.8c-.35,0-.62.09-.81.29-.16.19-.25.46-.28.81l-.16,1.85h8.34c.47,0,.69.2.66.59-.04.41-.29.62-.77.62h-8.34l-.22,2.51c-.03.38,0,.65.12.81.14.17.41.26.81.26,1.99,0,3.81-.09,5.47-.26,1.8-.19,3.29-.46,4.48-.81.23-.08.43-.08.59,0,.15.06.25.17.28.33.05.16.03.32-.07.48-.09.16-.24.28-.43.35-1.31.33-2.89.59-4.76.78-1.77.19-3.61.28-5.52.28-.88,0-1.52-.2-1.92-.59-.36-.38-.51-.96-.44-1.75l.5-5.73c.05-.57.28-1.04.69-1.42.45-.39,1.01-.59,1.71-.59h7.91c.24,0,.42.05.55.17ZM151.2,682.57c1.18.65,1.72,1.51,1.62,2.58-.09,1.04-.78,1.88-2.07,2.51-1.42.71-3.39,1.07-5.92,1.07s-4.46-.36-5.76-1.07c-1.18-.63-1.72-1.47-1.63-2.51.09-1.07.79-1.94,2.08-2.58,1.42-.71,3.4-1.07,5.95-1.07s4.44.36,5.74,1.07ZM140.49,683.4c-1.03.43-1.58,1.01-1.65,1.75-.06.71.39,1.27,1.35,1.68,1.07.46,2.65.69,4.75.69s3.69-.23,4.82-.69c1.05-.41,1.6-.97,1.66-1.68.07-.74-.39-1.33-1.36-1.75-1.05-.44-2.62-.66-4.71-.66s-3.74.22-4.87.66ZM155.88,674.58c.21,0,.36.06.46.17.1.13.15.27.15.43-.01.16-.07.3-.18.43-.12.13-.27.19-.44.19h-2.63l-.4,4.62c-.02.22-.11.4-.28.52-.14.11-.3.17-.49.17s-.34-.06-.46-.17c-.13-.14-.19-.32-.17-.54l.95-10.88c.04-.43.29-.64.74-.64s.69.21.66.61l-.45,5.1h2.54Z"/>
    <path class="cls-16" d="M179.94,679.87c.12.11.17.25.15.43-.01.16-.08.29-.2.4-.14.14-.31.21-.52.21h-18.55c-.21,0-.36-.07-.45-.21-.09-.11-.11-.24-.08-.4.01-.17.08-.32.2-.43.15-.13.34-.19.56-.19h18.39c.22,0,.39.06.5.19ZM163.12,685.82c-.04.43.02.72.16.88.15.14.44.21.88.21h13.1c.41,0,.6.2.56.59-.04.41-.26.62-.67.62h-13.62c-.63,0-1.11-.2-1.44-.59-.33-.38-.47-.88-.41-1.49l.28-3.17c.03-.29.12-.5.27-.64.14-.14.31-.21.52-.21.19,0,.34.07.46.21.14.16.2.37.18.64l-.26,2.96ZM177.37,670.3c1.25.68,1.83,1.62,1.72,2.82-.1,1.18-.84,2.12-2.21,2.8-1.5.74-3.64,1.11-6.4,1.11s-4.85-.37-6.21-1.11c-1.25-.68-1.83-1.61-1.72-2.8.1-1.2.84-2.14,2.21-2.82,1.49-.74,3.62-1.11,6.4-1.11s4.83.37,6.21,1.11ZM165.71,671.12c-1.11.46-1.71,1.12-1.79,1.99-.07.84.41,1.49,1.44,1.94,1.12.51,2.86.76,5.22.76s4.11-.25,5.33-.76c1.13-.46,1.73-1.1,1.81-1.94.08-.87-.41-1.53-1.46-1.99-1.13-.49-2.86-.73-5.2-.73s-4.14.25-5.35.73Z"/>
    <path class="cls-16" d="M203.61,672.1c.76,1.61,1.03,3.63.82,6.07-.21,2.4-.83,4.4-1.88,6-1.13,1.77-2.55,2.65-4.26,2.65s-3.03-.88-3.87-2.65c-.76-1.6-1.04-3.59-.83-6,.21-2.43.84-4.45,1.88-6.07,1.15-1.75,2.59-2.63,4.33-2.63s2.97.88,3.8,2.63ZM196.47,672.93c-.78,1.37-1.27,3.12-1.45,5.24-.18,2.07,0,3.8.54,5.19.59,1.52,1.54,2.27,2.83,2.27s2.33-.76,3.18-2.27c.79-1.39,1.27-3.12,1.45-5.19.18-2.12,0-3.86-.54-5.24-.6-1.5-1.52-2.25-2.79-2.25s-2.37.75-3.23,2.25ZM209.21,688.47c-.14.14-.3.21-.49.21-.21,0-.36-.07-.48-.21-.13-.16-.18-.37-.16-.64l.81-9.29h-3.93c-.24,0-.42-.06-.55-.19-.12-.13-.17-.27-.18-.43.01-.16.08-.3.2-.43.12-.11.29-.17.51-.17h4.05l.68-7.75c.02-.24.11-.42.26-.54.14-.11.31-.17.51-.17.19,0,.34.05.46.17.15.13.21.31.19.54l-1.6,18.25c-.02.25-.12.47-.29.64Z"/>
    <path class="cls-16" d="M224.58,670.18c-.04.41-.3.62-.79.62h-2.68c-.33,0-.58.09-.73.26-.16.16-.25.41-.28.76l-1.09,12.49c-.03.35.02.62.14.83.14.22.37.33.68.33.49,0,1.01-.03,1.55-.1.53-.06.98-.13,1.37-.21.25-.09.46-.09.64,0,.15.09.24.23.27.4.01.19-.02.36-.12.52-.13.17-.29.29-.5.36-.53.08-1.1.14-1.72.19-.49.03-1.02.05-1.59.05-.74,0-1.3-.21-1.68-.62-.36-.39-.51-.93-.45-1.61l1.11-12.63c.06-.66.29-1.2.71-1.61.43-.41.99-.62,1.67-.62h2.84c.47,0,.69.2.66.59ZM230.95,670.18c-.04.41-.29.62-.76.62h-2.77c-.35,0-.6.08-.76.24-.14.16-.23.41-.26.76l-1.1,12.54c-.03.35.02.62.14.81.14.22.38.33.73.33.39,0,.89-.03,1.48-.1.73-.06,1.33-.14,1.8-.24.23-.08.42-.08.57,0,.15.09.23.23.25.4.03.17,0,.34-.11.5-.11.19-.27.32-.48.38-.52.11-1.11.18-1.77.21-.38.03-.94.05-1.66.05h-.21c-.79,0-1.38-.23-1.77-.69-.31-.4-.44-.9-.39-1.52l1.11-12.73c.06-.65.28-1.16.68-1.54.43-.41,1.02-.62,1.76-.62h2.87c.47,0,.69.2.66.59ZM233.47,688.49c-.14.12-.3.19-.49.19-.21,0-.37-.06-.48-.19-.13-.14-.18-.32-.17-.54l.87-9.95h-3.48c-.24,0-.42-.06-.55-.19-.12-.13-.17-.27-.17-.43.01-.16.08-.3.2-.43.12-.11.29-.17.51-.17h3.6l.63-7.25c.02-.2.1-.37.26-.5.14-.11.31-.17.51-.17.19,0,.34.05.46.17.15.11.21.27.2.47l-1.61,18.44c-.02.22-.11.4-.29.54Z"/>
    <path class="cls-16" d="M248.19,669.56c.14-.11.3-.17.49-.17s.34.05.46.17c.15.13.21.31.19.54-.05.55-.17,1.19-.38,1.92-.17.68-.35,1.26-.55,1.73,1.03.88,1.98,1.82,2.86,2.82,1.04,1.17,1.86,2.29,2.48,3.37.11.22.13.44.06.66-.05.19-.16.34-.32.45-.18.1-.36.13-.53.1-.2-.05-.36-.17-.46-.38-.57-1.06-1.28-2.11-2.14-3.15-.79-.95-1.62-1.82-2.5-2.61-.7,1.26-1.45,2.4-2.27,3.41-.99,1.23-2.1,2.31-3.34,3.22-.17.13-.35.17-.53.14-.17-.03-.31-.12-.4-.26-.1-.14-.13-.3-.1-.47.05-.2.18-.38.4-.52,1.75-1.26,3.24-2.94,4.44-5.02,1.12-1.91,1.75-3.71,1.89-5.4.02-.24.11-.42.26-.54ZM244.39,685.82c-.04.43.02.72.16.88.15.14.45.21.91.21h12.77c.39,0,.58.2.54.59-.04.41-.25.62-.65.62h-13.01c-.71,0-1.26-.17-1.64-.52-.41-.36-.59-.89-.53-1.59l.28-3.15c.02-.25.11-.45.27-.59.14-.13.31-.19.51-.19.19,0,.34.06.46.19.15.14.21.34.18.59l-.26,2.96ZM258.21,683.14c-.14.13-.3.19-.49.19-.21,0-.37-.06-.48-.19-.13-.14-.18-.33-.16-.57l1.14-13.03c.02-.21.1-.37.26-.5.14-.11.31-.17.51-.17.19,0,.34.05.46.17.15.11.21.27.2.47l-1.14,13.06c-.02.24-.12.43-.29.57Z"/>
    <path class="cls-16" d="M276.49,670.2c.41.4.58.94.52,1.64l-.25,2.8c-.32,3.63-1.52,6.51-3.62,8.62-1.94,1.98-4.38,3.06-7.3,3.25-.44.03-.67-.16-.66-.57,0-.4.23-.61.67-.64,2.74-.28,4.91-1.27,6.51-2.96,1.74-1.83,2.76-4.42,3.05-7.75l.24-2.77c.03-.33-.04-.58-.22-.76-.19-.17-.47-.26-.83-.26h-7.04c-.44,0-.65-.21-.61-.62.02-.4.25-.59.69-.59h7.01c.79,0,1.4.21,1.82.62ZM285.06,678.19c.38,0,.55.19.52.57-.04.39-.24.59-.62.59h-2.63l-.76,8.65c-.02.21-.11.37-.28.5-.14.13-.3.19-.49.19s-.34-.06-.46-.19c-.13-.13-.19-.29-.17-.5l1.62-18.48c.02-.21.1-.37.26-.5.13-.09.3-.14.49-.14s.34.05.46.14c.15.13.21.29.19.5l-.76,8.67h2.63Z"/>
    <path class="cls-16" d="M295.38,680.41c.47,0,.69.22.65.66l-.42,4.76h6.99l.42-4.81c.04-.44.29-.66.77-.64.47,0,.69.22.65.66l-.42,4.79h4.26c.22,0,.39.06.51.17.12.13.17.27.15.43s-.09.3-.23.43c-.14.13-.31.19-.51.19h-18.6c-.17,0-.3-.06-.39-.19-.08-.13-.11-.27-.08-.43.03-.16.11-.3.23-.43.14-.11.31-.17.54-.17h4.29l.42-4.79c.04-.44.29-.66.77-.64ZM306.59,670.96c1.3,1.01,1.88,2.33,1.74,3.96-.14,1.6-.95,2.89-2.43,3.89-1.58,1.06-3.69,1.59-6.32,1.59s-4.68-.53-6.07-1.59c-1.29-1-1.86-2.29-1.72-3.89.14-1.63.94-2.95,2.41-3.96,1.58-1.07,3.69-1.61,6.35-1.61s4.65.54,6.04,1.61ZM295.14,671.81c-1.21.77-1.86,1.81-1.98,3.1-.11,1.28.37,2.3,1.44,3.06,1.16.81,2.86,1.21,5.08,1.21s3.97-.4,5.27-1.21c1.22-.77,1.89-1.79,2-3.06.11-1.29-.37-2.33-1.46-3.1-1.16-.82-2.85-1.23-5.06-1.23s-3.99.41-5.3,1.23Z"/>
    <path class="cls-16" d="M322.68,670.63c.85.77,1.21,1.86,1.09,3.25-.07.82-.32,1.56-.74,2.23-.44.68-1.12,1.38-2.03,2.11-.83.63-1.4,1.23-1.72,1.8-.32.6-.53,1.45-.63,2.56-.02.22-.11.4-.28.54-.15.13-.33.19-.51.19-.21,0-.37-.06-.5-.19-.13-.14-.18-.32-.17-.54.1-1.12.33-2.04.69-2.77.37-.76.96-1.45,1.77-2.06.97-.76,1.65-1.45,2.05-2.09.35-.55.55-1.18.62-1.9.05-.8-.14-1.46-.59-1.97-.53-.62-1.36-.92-2.5-.92-1.34,0-2.36.46-3.04,1.37-.47.65-.74,1.41-.82,2.3-.02.22-.12.41-.29.57-.15.14-.33.21-.52.21-.21.02-.38-.04-.51-.17-.13-.14-.18-.34-.16-.59.14-1.56.77-2.81,1.89-3.74,1.02-.84,2.2-1.25,3.54-1.25h.26c1.29,0,2.32.36,3.08,1.07ZM318.5,685.91c.18.24.26.53.23.88-.03.32-.15.59-.38.83-.24.25-.55.38-.91.38-.39,0-.68-.13-.87-.38-.17-.22-.24-.5-.21-.83.03-.35.15-.64.36-.88.23-.25.54-.38.93-.38.36,0,.64.13.84.38Z"/>
    <path class="cls-16" d="M336.14,669.85c.15-.13.33-.19.54-.19.19,0,.35.05.48.17.14.14.21.33.19.57l-.54,6.16c.54-.74,1.16-1.29,1.87-1.64.72-.35,1.56-.52,2.51-.52,1.75,0,3.08.7,3.96,2.09.79,1.25,1.11,2.81.94,4.69-.16,1.85-.75,3.4-1.76,4.64-1.13,1.39-2.58,2.08-4.33,2.08-1.01,0-1.89-.21-2.62-.64-.65-.36-1.11-.82-1.4-1.38l-.09,1c-.02.22-.12.4-.28.54-.15.13-.33.2-.52.21-.21,0-.37-.06-.48-.17-.15-.14-.21-.34-.18-.59l1.44-16.44c.02-.25.11-.45.26-.59ZM337.73,677.38c-.75.98-1.19,2.24-1.33,3.77-.13,1.52.09,2.76.67,3.74.64,1.12,1.66,1.68,3.05,1.68,1.29,0,2.35-.56,3.18-1.68.73-1,1.17-2.24,1.3-3.74.13-1.52-.08-2.77-.64-3.77-.65-1.12-1.61-1.68-2.89-1.68-1.39,0-2.51.56-3.35,1.68Z"/>
    <path class="cls-16" d="M348.71,674.82c.11-.16.26-.28.46-.36.2-.09.39-.12.58-.07.19.05.31.17.37.38l2.97,9.88,4.65-9.81c.08-.21.23-.34.46-.4.18-.06.37-.07.57-.02.2.05.35.14.45.28.1.16.1.33,0,.52l-6.52,13.29c-.43.81-.92,1.41-1.46,1.8-.53.39-1.11.59-1.76.59h-1.07c-.24,0-.41-.07-.53-.21-.1-.13-.14-.28-.13-.45.02-.17.08-.32.21-.45.14-.13.32-.19.56-.19h1.07c.35,0,.63-.1.86-.31.19-.17.42-.5.68-.97l.98-1.75-3.45-11.18c-.08-.21-.06-.39.05-.57Z"/>
    <path class="cls-16" d="M381.17,669.96c.41.36.59.84.54,1.45l-.08.88c-.15,1.74-1.13,3.23-2.95,4.48-1.95,1.33-4.43,2.05-7.44,2.16-.51.02-.75-.17-.73-.57.02-.39.28-.6.79-.62,2.66-.11,4.81-.7,6.46-1.75,1.56-1,2.4-2.23,2.53-3.72l.06-.66c.03-.33-.05-.58-.24-.73-.18-.16-.43-.24-.76-.24h-7.08c-.44,0-.65-.21-.61-.62.02-.39.25-.59.69-.59h7.25c.66,0,1.19.18,1.59.55ZM386.99,681.27c.33.32.48.76.43,1.33l-.08.95c-.04.47-.25.86-.62,1.16-.38.32-.85.47-1.42.47h-11.23c-.32,0-.55.06-.7.19-.12.11-.19.29-.21.54l-.06.66c-.02.24.04.4.17.5.12.09.32.14.6.14h13.03c.22,0,.4.06.53.17.1.13.15.27.15.43-.01.16-.08.3-.2.43-.12.13-.29.19-.49.19h-13.53c-.54,0-.96-.15-1.26-.45-.32-.32-.46-.73-.41-1.23l.09-1.07c.05-.54.25-.96.61-1.28.36-.3.8-.45,1.32-.45h11.28c.28,0,.5-.05.65-.14.18-.09.28-.24.3-.43l.05-.62c.02-.27-.03-.47-.16-.59-.13-.11-.37-.17-.7-.17h-12.39c-.47,0-.69-.21-.66-.62.02-.39.27-.59.76-.59h12.58c.69,0,1.22.16,1.57.47ZM387.49,678.99c-.14.11-.3.17-.49.17-.21,0-.37-.05-.48-.17-.13-.13-.19-.29-.17-.5l.78-8.96c.02-.2.1-.37.26-.5.14-.11.31-.17.51-.17.19,0,.34.05.46.17.15.11.21.27.2.47l-.79,8.99c-.02.2-.11.37-.28.5Z"/>
    <path class="cls-16" d="M401.15,669.4c.14-.11.3-.17.49-.17s.34.06.46.17c.15.13.21.31.19.54-.04.51-.15,1.04-.33,1.59-.11.4-.28.86-.5,1.4,1.3,1,2.36,1.91,3.17,2.75.75.79,1.52,1.76,2.3,2.91.12.21.17.41.14.62-.05.17-.15.32-.3.43-.17.11-.34.15-.51.12-.2-.03-.37-.14-.49-.33-.67-1.03-1.39-1.97-2.17-2.82-.75-.82-1.64-1.64-2.67-2.46-.73,1.28-1.46,2.33-2.2,3.15-.84.95-1.9,1.89-3.18,2.82-.2.13-.39.17-.58.14-.17-.02-.3-.1-.38-.26-.1-.14-.12-.31-.07-.5.05-.19.19-.36.42-.5,1.76-1.14,3.21-2.68,4.36-4.64.95-1.61,1.48-3.08,1.59-4.41.02-.24.11-.42.26-.54ZM410.47,681.76c.35.3.51.7.46,1.21l-.29,3.32c-.05.6-.28,1.06-.69,1.38-.37.3-.87.45-1.5.45h-10.34c-.8,0-1.36-.17-1.68-.52-.3-.32-.43-.79-.37-1.42l.27-3.1c.04-.51.25-.92.63-1.26.38-.33.85-.5,1.44-.5h10.55c.66,0,1.17.15,1.52.45ZM409.3,682.69c-.15-.11-.41-.17-.79-.17h-9.77c-.36,0-.63.07-.8.21-.14.13-.22.34-.25.64l-.23,2.68c-.03.32.03.54.18.66.15.13.42.19.81.19h9.72c.35,0,.6-.05.77-.17.18-.13.29-.32.31-.59l.25-2.82c.03-.3-.04-.51-.2-.64ZM414.25,674.58c.41,0,.6.2.56.59-.04.41-.26.62-.67.62h-2.58l-.28,3.2c-.02.22-.11.39-.28.52-.14.13-.3.19-.49.19s-.34-.06-.46-.19c-.13-.13-.19-.3-.17-.52l.83-9.48c.04-.42.29-.64.74-.64s.69.21.66.64l-.44,5.07h2.58Z"/>
  </g>
  <text class="cls-20" transform="translate(111.45 544.77)"><tspan class="cls-5"><tspan x="0" y="0">고길삼</tspan></tspan><tspan class="cls-17"><tspan x="-26.11" y="25">[23학번 디미과]</tspan></tspan></text>
  <text class="cls-20" transform="translate(330.21 544.77)"><tspan class="cls-5"><tspan x="0" y="0">홍길동</tspan></tspan><tspan class="cls-17"><tspan x="-26.11" y="25">[24학번 디미과]</tspan></tspan></text>
  <g>
    <line class="cls-11" x1="132.81" y1="430.23" x2="134.81" y2="430.23"/>
    <line class="cls-10" x1="139" y1="430.23" x2="153.66" y2="430.23"/>
    <line class="cls-8" x1="155.76" y1="430.23" x2="329.6" y2="430.23"/>
    <line class="cls-7" x1="331.7" y1="430.23" x2="333.7" y2="430.23"/>
  </g>
  <circle class="cls-22" cx="141.45" cy="430.23" r="68.2"/>
  <circle class="cls-9" cx="360.21" cy="430.23" r="68.2"/>
  <g>
    <path class="cls-16" d="M178.44,419.08l-.31,4.23-.81,9.37c-2.31,1.12-5.03,1.37-7.38,1.06.05-.86.15-1.55.33-2.35l5.7.35.44-4.58,1.09-7.47-11.01-.06-.35,2.75-.2,2.28c1.97-.04,3.71-.02,5.58.2l-.24,2-5.48-.25c-.74,3.98-1.24,7.86-1.55,11.89l5.1.55c2.46.26,4.89.14,7.4-.39l-.12,1.74,5.48.99,1.95-22.31h-5.64Z"/>
    <path class="cls-16" d="M110.72,419.93l-10.33.06-.27,1.57-.36,4.11c1.61-.12,3.12-.21,4.73-.1-.12,1.71-.32,3.3-.8,4.92-.46,1.44-1.16,2.72-2.26,3.78-.8.71-1.63,1.24-2.6,1.7l2.24,5.24c3.19-1.2,5.61-2.86,6.86-6.08.38-.98.7-1.95.87-2.98l1.02-6,1.86-.14c-.31,3.43-1.02,6.78-3.53,9.56l4.22,3.63c1.11-1.24,1.8-2.56,2.42-4.02.85-2.19,1.33-4.4,1.61-6.71l.98-8-6.82.62.18-1.16Z"/>
    <path class="cls-16" d="M152.32,419.86h-7.25c-.1,0-.29.03-.34.09-.05.06-.12.24-.13.33l-.45,4.86,2.79-.06c-.23,3.73-.89,6.87-4.1,9.31l3.55,3.27c1.51-.93,2.65-2.25,3.39-3.84.55-1.27.98-2.52,1.18-3.87l.63-4.26,1.55-.11-.66,4.33c-.49,2.14-1.25,4.17-2.45,6.11l4.7,2.01c.98-1.55,1.56-3.22,2-4.97.46-1.95.74-3.82,1.01-5.79l.78-7.08-6.29.61.09-.94Z"/>
    <path class="cls-16" d="M129.04,431.79c.04-2.26.29-4.42.68-6.65.33-1.86.72-3.58,1.24-5.5h-5.57c-.75,3.37-1.3,6.68-1.67,10.1-.23,2.82-.3,5.52-.14,8.31l6.13-.91c2.18-.32,4.3-.92,6.43-1.64l-.6-5.45c-2.21.95-4.29,1.56-6.51,1.74Z"/>
    <polygon class="cls-16" points="118.24 419.11 116.53 438.9 121.87 438.34 123.55 419.08 118.24 419.11"/>
    <polygon class="cls-16" points="164.66 419.08 159.31 419.08 158.98 424.24 157.72 438.21 162.95 438.67 163.23 434.98 164.66 419.08"/>
    <polygon class="cls-16" points="137.99 419.1 136.38 437.61 141.71 437.56 143.32 419.1 137.99 419.1"/>
  </g>
  <g>
    <path class="cls-6" d="M397.2,419.08l-.31,4.23-.81,9.37c-2.31,1.12-5.03,1.37-7.38,1.06.05-.86.15-1.55.33-2.35l5.7.35.44-4.58,1.09-7.47-11.01-.06-.35,2.75-.2,2.28c1.97-.04,3.71-.02,5.58.2l-.24,2-5.48-.25c-.74,3.98-1.24,7.86-1.55,11.89l5.1.55c2.46.26,4.89.14,7.4-.39l-.12,1.74,5.48.99,1.95-22.31h-5.64Z"/>
    <path class="cls-6" d="M329.48,419.93l-10.33.06-.27,1.57-.36,4.11c1.61-.12,3.12-.21,4.73-.1-.12,1.71-.32,3.3-.8,4.92-.46,1.44-1.16,2.72-2.26,3.78-.8.71-1.63,1.24-2.6,1.7l2.24,5.24c3.19-1.2,5.61-2.86,6.86-6.08.38-.98.7-1.95.87-2.98l1.02-6,1.86-.14c-.31,3.43-1.02,6.78-3.53,9.56l4.22,3.63c1.11-1.24,1.8-2.56,2.42-4.02.85-2.19,1.33-4.4,1.61-6.71l.98-8-6.82.62.18-1.16Z"/>
    <path class="cls-6" d="M371.08,419.86h-7.25c-.1,0-.29.03-.34.09-.05.06-.12.24-.13.33l-.45,4.86,2.79-.06c-.23,3.73-.89,6.87-4.1,9.31l3.55,3.27c1.51-.93,2.65-2.25,3.39-3.84.55-1.27.98-2.52,1.18-3.87l.63-4.26,1.55-.11-.66,4.33c-.49,2.14-1.25,4.17-2.45,6.11l4.7,2.01c.98-1.55,1.56-3.22,2-4.97.46-1.95.74-3.82,1.01-5.79l.78-7.08-6.29.61.09-.94Z"/>
    <path class="cls-6" d="M347.8,431.79c.04-2.26.29-4.42.68-6.65.33-1.86.72-3.58,1.24-5.5h-5.57c-.75,3.37-1.3,6.68-1.67,10.1-.23,2.82-.3,5.52-.14,8.31l6.13-.91c2.18-.32,4.3-.92,6.43-1.64l-.6-5.45c-2.21.95-4.29,1.56-6.51,1.74Z"/>
    <polygon class="cls-6" points="337 419.11 335.29 438.9 340.63 438.34 342.31 419.08 337 419.11"/>
    <polygon class="cls-6" points="383.42 419.08 378.07 419.08 377.74 424.24 376.48 438.21 381.71 438.67 381.99 434.98 383.42 419.08"/>
    <polygon class="cls-6" points="356.75 419.1 355.14 437.61 360.47 437.56 362.08 419.1 356.75 419.1"/>
  </g>
</svg>