<?xml version="1.0" encoding="UTF-8"?>
<svg id="_레이어_1" data-name="레이어 1" xmlns="http://www.w3.org/2000/svg" xmlns:xlink="http://www.w3.org/1999/xlink" viewBox="0 0 501.67 1100.75">
  <defs>
    <style>
      .cls-1 {
        fill: #070303;
      }

      .cls-1, .cls-2, .cls-3, .cls-4, .cls-5, .cls-6, .cls-7, .cls-8 {
        font-weight: 700;
      }

      .cls-1, .cls-4, .cls-7, .cls-8 {
        font-family: Pretendard-Bold-KSCpc-EUC-H, Pretendard;
      }

      .cls-1, .cls-8 {
        font-size: 16.44px;
      }

      .cls-9 {
        fill: #d4d6da;
        opacity: .32;
      }

      .cls-10, .cls-11 {
        fill: #d4d5da;
      }

      .cls-10, .cls-12 {
        font-family: Pretendard-SemiBold-KSCpc-EUC-H, Pretendard;
        font-size: 13.48px;
        font-weight: 600;
      }

      .cls-13 {
        fill: url(#_무제_그라디언트_12);
      }

      .cls-2 {
        font-size: 17.89px;
      }

      .cls-2, .cls-5, .cls-6 {
        font-family: KIMWILDgag-Bold, 'KIMWILDgag Bold';
      }

      .cls-2, .cls-14 {
        fill: #f8f6f1;
      }

      .cls-15, .cls-3, .cls-5, .cls-16, .cls-17 {
        fill: #fff;
      }

      .cls-18 {
        letter-spacing: -.03em;
      }

      .cls-3 {
        font-family: Pretendard-ExtraBold-KSCpc-EUC-H, Pretendard;
        font-size: 25px;
      }

      .cls-4 {
        fill: #231815;
      }

      .cls-4, .cls-5, .cls-7 {
        font-size: 22px;
      }

      .cls-19 {
        opacity: .4;
      }

      .cls-20 {
        filter: url(#drop-shadow-31);
      }

      .cls-21 {
        fill: #a93524;
      }

      .cls-22 {
        filter: url(#drop-shadow-30);
      }

      .cls-23 {
        fill: url(#_무제_그라디언트_12-2);
      }

      .cls-16 {
        font-family: esamanruBold, esamanruBold;
        font-size: 14.82px;
      }

      .cls-12, .cls-6, .cls-7, .cls-8, .cls-24 {
        fill: #eb5e33;
      }

      .cls-6 {
        font-size: 47.31px;
        letter-spacing: -.05em;
      }

      .cls-25 {
        filter: url(#drop-shadow-33);
      }

      .cls-17 {
        stroke: #eb5e33;
        stroke-miterlimit: 10;
      }

      .cls-26 {
        filter: url(#drop-shadow-32);
      }
    </style>
    <linearGradient id="_무제_그라디언트_12" data-name="무제 그라디언트 12" x1="405.71" y1="959.1" x2="422.11" y2="959.1" gradientUnits="userSpaceOnUse">
      <stop offset=".46" stop-color="#eb5e33"/>
      <stop offset="1" stop-color="#e1772d"/>
    </linearGradient>
    <linearGradient id="_무제_그라디언트_12-2" data-name="무제 그라디언트 12" x1="424.63" y1="959.1" x2="441.02" y2="959.1" xlink:href="#_무제_그라디언트_12"/>
    <filter id="drop-shadow-30" x="40.25" y="339.9" width="144.48" height="89.52" filterUnits="userSpaceOnUse">
      <feOffset dx="2.83" dy="2.83"/>
      <feGaussianBlur result="blur" stdDeviation="2.83"/>
      <feFlood flood-color="#000" flood-opacity=".5"/>
      <feComposite in2="blur" operator="in"/>
      <feComposite in="SourceGraphic"/>
    </filter>
    <filter id="drop-shadow-31" x="181.37" y="339.9" width="144.72" height="89.52" filterUnits="userSpaceOnUse">
      <feOffset dx="2.83" dy="2.83"/>
      <feGaussianBlur result="blur-2" stdDeviation="2.83"/>
      <feFlood flood-color="#000" flood-opacity=".5"/>
      <feComposite in2="blur-2" operator="in"/>
      <feComposite in="SourceGraphic"/>
    </filter>
    <filter id="drop-shadow-32" x="322.49" y="339.9" width="144.72" height="89.52" filterUnits="userSpaceOnUse">
      <feOffset dx="2.83" dy="2.83"/>
      <feGaussianBlur result="blur-3" stdDeviation="2.83"/>
      <feFlood flood-color="#000" flood-opacity=".5"/>
      <feComposite in2="blur-3" operator="in"/>
      <feComposite in="SourceGraphic"/>
    </filter>
    <filter id="drop-shadow-33" x="339.29" y="163.26" width="127.44" height="127.44" filterUnits="userSpaceOnUse">
      <feOffset dx="2.83" dy="2.83"/>
      <feGaussianBlur result="blur-4" stdDeviation="2.83"/>
      <feFlood flood-color="#000" flood-opacity=".5"/>
      <feComposite in2="blur-4" operator="in"/>
      <feComposite in="SourceGraphic"/>
    </filter>
  </defs>
  <rect class="cls-14" x="0" y="53.86" width="501.67" height="1046.88"/>
  <rect class="cls-9" x="0" y="112.59" width="501.67" height="197.33"/>
  <path class="cls-24" d="M0,0v111.05C0,124.02,10.51,134.53,23.48,134.53h454.71c12.97,0,23.48-10.51,23.48-23.48V0H0Z"/>
  <g>
    <text class="cls-3" transform="translate(56.76 86.35) rotate(-180)"><tspan x="0" y="0">-&gt;</tspan></text>
    <text class="cls-3" transform="translate(196.83 102.05)"><tspan x="0" y="0">마이페이지</tspan></text>
  </g>
  <text class="cls-6" transform="translate(203.92 544.23)"><tspan x="0" y="0">MAY</tspan></text>
  <g>
    <rect class="cls-24" x="46.53" y="573.6" width="408.61" height="302.84" rx="5.49" ry="5.49"/>
    <g>
      <rect class="cls-14" x="66.79" y="619.35" width="43.94" height="43.94"/>
      <rect class="cls-14" x="121.63" y="619.35" width="43.94" height="43.94"/>
      <rect class="cls-14" x="176.47" y="619.35" width="43.94" height="43.94"/>
      <rect class="cls-14" x="231.31" y="619.35" width="43.94" height="43.94"/>
      <rect class="cls-14" x="286.15" y="619.35" width="43.94" height="43.94"/>
      <rect class="cls-21" x="340.99" y="619.35" width="43.94" height="43.94"/>
      <rect class="cls-14" x="395.83" y="619.35" width="43.94" height="43.94"/>
      <rect class="cls-14" x="66.79" y="682.87" width="43.94" height="43.94"/>
      <rect class="cls-14" x="121.63" y="682.87" width="43.94" height="43.94"/>
      <rect class="cls-14" x="176.47" y="682.87" width="43.94" height="43.94"/>
      <rect class="cls-14" x="231.31" y="682.87" width="43.94" height="43.94"/>
      <rect class="cls-14" x="286.15" y="682.87" width="43.94" height="43.94"/>
      <rect class="cls-14" x="340.99" y="682.87" width="43.94" height="43.94"/>
      <rect class="cls-21" x="395.83" y="682.87" width="43.94" height="43.94"/>
      <rect class="cls-14" x="66.79" y="746.4" width="43.94" height="43.94"/>
      <rect class="cls-14" x="121.63" y="746.4" width="43.94" height="43.94"/>
      <rect class="cls-14" x="176.47" y="746.4" width="43.94" height="43.94"/>
      <rect class="cls-14" x="231.31" y="746.4" width="43.94" height="43.94"/>
      <rect class="cls-14" x="286.15" y="746.4" width="43.94" height="43.94"/>
      <rect class="cls-14" x="340.99" y="746.4" width="43.94" height="43.94"/>
      <rect class="cls-14" x="395.83" y="746.4" width="43.94" height="43.94"/>
      <rect class="cls-14" x="66.79" y="809.92" width="43.94" height="43.94"/>
      <rect class="cls-14" x="121.63" y="809.92" width="43.94" height="43.94"/>
      <rect class="cls-14" x="176.47" y="809.92" width="43.94" height="43.94"/>
      <rect class="cls-14" x="231.31" y="809.92" width="43.94" height="43.94"/>
      <rect class="cls-14" x="286.15" y="809.92" width="43.94" height="43.94"/>
      <rect class="cls-14" x="340.99" y="809.92" width="43.94" height="43.94"/>
      <rect class="cls-14" x="395.83" y="809.92" width="43.94" height="43.94"/>
      <text class="cls-16" transform="translate(413.55 708.49)"><tspan x="0" y="0">9</tspan></text>
      <text class="cls-16" transform="translate(358.71 645.18)"><tspan x="0" y="0">1</tspan></text>
    </g>
    <text class="cls-2" transform="translate(83.1 604.66)"><tspan x="0" y="0">S</tspan></text>
    <text class="cls-2" transform="translate(136.33 604.66)"><tspan x="0" y="0">M</tspan></text>
    <text class="cls-2" transform="translate(193.24 604.66)"><tspan x="0" y="0">T</tspan></text>
    <text class="cls-2" transform="translate(245.28 604.66)"><tspan x="0" y="0">W</tspan></text>
    <text class="cls-2" transform="translate(294.54 604.66)"><tspan x="0" y="0">TH</tspan></text>
    <text class="cls-2" transform="translate(357.63 604.66)"><tspan x="0" y="0">F</tspan></text>
    <text class="cls-2" transform="translate(412.14 604.66)"><tspan x="0" y="0">S</tspan></text>
  </g>
  <g>
    <g>
      <path class="cls-11" d="M66.46,941.73c.59.02,1.11.19,1.55.51l15.45,14.6c.53.47.74,1.04.78,1.72v1.09c-.07,1.82-2,2.94-3.79,2.8v10.72c-.3,1.71-1.53,3.2-3.45,3.3h-6.81c-.52-.05-.82-.3-.92-.79v-8.43c-.11-.77-.48-1.25-1.27-1.5h-4.23c-.8.26-1.15.73-1.26,1.5v8.24c-.09.55-.29.95-.93.98h-6.81c-1.92-.09-3.17-1.6-3.44-3.31v-10.72c-1.8.13-3.65-.95-3.8-2.74v-1.22c.04-.64.27-1.18.77-1.63l15.37-14.54c.44-.42.98-.54,1.58-.59h1.22Z"/>
      <text class="cls-10" transform="translate(59.7295 1000.5933) scale(1.0569 1)"><tspan x="0" y="0">홈</tspan></text>
    </g>
    <g>
      <polygon class="cls-11" points="147.93 954.71 147.12 954.71 147.41 956.61 147.93 954.71"/>
      <path class="cls-11" d="M162.08,941.73h-25.13c-.78,0-1.41.6-1.41,1.34v32.07c0,.74.63,1.34,1.41,1.34h25.13c.78,0,1.41-.6,1.41-1.34v-32.07c0-.74-.63-1.34-1.41-1.34ZM142.72,952.86h1.44l-.62-2.66,2.83-.32.46,2.98h1.61l.71-2.59,1.28.02.53,2.57h1.6l.74-2.86h2.91l-.93,2.86h1.04v1.85h-1.65l-1.66,5.14-2.3.03-1.04-5.17h-.14l-.8,5.27h-2.88l-1.25-5.27h-1.87v-1.85ZM159.94,969.01h-20.85v-1.39h20.85v1.39ZM159.94,964.84h-20.85v-1.39h20.85v1.39Z"/>
      <polygon class="cls-11" points="152.08 954.71 151.32 954.71 151.66 956.32 152.08 954.71"/>
      <text class="cls-10" transform="translate(137.206 1000.5933) scale(1.0569 1)"><tspan x="0" y="0">스캔</tspan></text>
    </g>
    <g>
      <text class="cls-12" transform="translate(392.584 1000.5933) scale(1.0569 1)"><tspan x="0" y="0">마이페이지</tspan></text>
      <g>
        <path class="cls-13" d="M421.34,972.47c-3.36-2.57-7.9-3.68-12.39-3.89-.47-.02-.87-.1-1.36-.06-.97.08-1.89-.49-1.89-1.36l.02-20.74c0-.81,1.06-1.27,1.84-1.22l1.12.07c2.59.16,5.12.53,7.47,1.45,2.49.98,4.72,2.49,5.96,4.56v21.71c-.33-.08-.49-.31-.77-.53Z"/>
        <path class="cls-23" d="M435.74,968.74c-3.72.37-7.87,1.69-10.5,3.87-.19.16-.34.33-.61.39v-21.71c1.22-2.05,3.48-3.6,5.95-4.56s4.88-1.29,7.47-1.45l1.12-.07c.78-.05,1.85.42,1.85,1.22v20.88c0,.83-1.12,1.3-1.94,1.21-.48-.05-.79.04-1.2.06s-.83.03-1.26.07l-.88.09Z"/>
      </g>
    </g>
    <g>
      <text class="cls-10" transform="translate(221.9384 1000.5933) scale(1.0569 1)"><tspan x="0" y="0">채팅</tspan></text>
      <path class="cls-11" d="M253.69,956.8c-.15-5.05-3.71-9.45-8.13-12.07-10.87-6.45-27.5-2.3-30.6,10.34l-.13,1.71-.03,2.37c.04,3.47,1.88,6.66,4.26,9.21.62,2.13-.17,4.52-1.89,6.15-.43.58-.29,1.43.38,1.79.33.18,1.41.19,1.81.13,2.9-.43,5.5-1.24,7.59-3.29,6.25,2.09,13.52,1.39,19.12-2.14,4.18-2.63,7.47-6.95,7.65-11.76l-.02-2.43Z"/>
    </g>
    <g>
      <text class="cls-10" transform="translate(310.8349 1000.5933) scale(1.0569 1)"><tspan x="0" y="0">밥약</tspan></text>
      <path class="cls-11" d="M323.79,941.73c1.23.06,2.36.56,3.08,1.53,2.77-1.1,6.08.74,6.5,3.53,2.95.4,4.89,3.51,3.73,6.12,1.06.68,1.53,1.85,1.8,2.98,1.37-.07,2.34.04,2.38,1.54.07,2.62-.96,5.8-2.33,8.1-1.69,2.84-4.24,5.26-7.31,6.74.35,1.87-.94,4.12-3.22,4.2h-10.57c-2.27-.09-3.56-2.29-3.22-4.2-5.63-2.68-9.67-8.82-9.63-14.74,0-.91.25-1.5,1.32-1.64h1.11c.16-1.15.75-2.31,1.75-2.99-1.16-2.61.79-5.72,3.73-6.11.42-2.79,3.73-4.62,6.5-3.53.67-.92,1.82-1.5,3.01-1.54h1.36ZM336.27,956.03c-.34-1.55-1.78-1.52-2.02-2.27-.12-.39-.08-.76.14-1.07.55-.74.63-1.68.13-2.47-.46-.72-1.31-1.18-2.27-1.1-.74.06-1.42-.49-1.35-1.22.08-.92-.37-1.76-1.17-2.21s-1.83-.39-2.61.12c-.63.41-1.48.2-1.79-.44-.42-.84-1.27-1.37-2.22-1.35s-1.74.53-2.15,1.35c-.31.64-1.16.85-1.79.44-.8-.52-1.82-.58-2.66-.09-.78.45-1.21,1.28-1.12,2.18.07.73-.61,1.28-1.35,1.22-.97-.08-1.82.38-2.27,1.1-.5.79-.41,1.73.13,2.47.23.31.27.68.14,1.07-.24.75-1.7.73-2.01,2.27h26.24Z"/>
    </g>
  </g>
  <g class="cls-22">
    <rect class="cls-17" x="46.53" y="346.18" width="126.32" height="71.3" rx="6.17" ry="6.17"/>
  </g>
  <text class="cls-8" transform="translate(79.4 376.22)"><tspan x="0" y="0">식성 필터</tspan></text>
  <g class="cls-19">
    <text class="cls-1" transform="translate(95.49 400.49)"><tspan x="0" y="0">보기</tspan></text>
  </g>
  <g class="cls-20">
    <rect class="cls-17" x="187.67" y="346.18" width="126.32" height="71.3" rx="6.17" ry="6.17"/>
  </g>
  <text class="cls-8" transform="translate(222.43 376.22)"><tspan x="0" y="0">아카이브</tspan></text>
  <g class="cls-26">
    <rect class="cls-17" x="328.82" y="346.18" width="126.32" height="71.3" rx="6.17" ry="6.17"/>
  </g>
  <text class="cls-8" transform="translate(363.57 376.22)"><tspan x="0" y="0">다이어리</tspan></text>
  <g>
    <text class="cls-4" transform="translate(59.17 210.42)"><tspan x="0" y="0">안녕하세요</tspan><tspan class="cls-18" x="95.04" y="0">,</tspan><tspan x="100.67" y="0" xml:space="preserve"> 홍길동님</tspan></text>
    <text class="cls-7" transform="translate(96.49 248.46)"><tspan x="0" y="0">10</tspan></text>
    <circle class="cls-24" cx="73.86" cy="239.43" r="13.98"/>
    <text class="cls-5" transform="translate(67.57 246.62)"><tspan x="0" y="0">c</tspan></text>
  </g>
  <g class="cls-19">
    <text class="cls-1" transform="translate(236.63 400.49)"><tspan x="0" y="0">보기</tspan></text>
  </g>
  <g class="cls-19">
    <text class="cls-1" transform="translate(377.77 400.49)"><tspan x="0" y="0">보기</tspan></text>
  </g>
  <g class="cls-25">
    <circle class="cls-15" cx="400.11" cy="224.07" r="55.03"/>
    <g>
      <path class="cls-24" d="M429.38,215.25l-.24,3.35-.64,7.41c-1.83.88-3.98,1.08-5.84.83.04-.68.12-1.23.26-1.86l4.51.28.35-3.62.87-5.91-8.71-.05-.28,2.18-.16,1.81c1.56-.03,2.94-.02,4.42.16l-.19,1.59-4.34-.2c-.59,3.15-.98,6.22-1.22,9.41l4.04.43c1.95.21,3.87.11,5.86-.31l-.09,1.38,4.33.78,1.55-17.65h-4.46Z"/>
      <path class="cls-24" d="M375.79,215.93l-8.17.05-.21,1.24-.28,3.26c1.27-.1,2.47-.16,3.74-.08-.09,1.35-.25,2.61-.63,3.89-.37,1.14-.92,2.15-1.79,2.99-.63.56-1.29.98-2.06,1.35l1.77,4.14c2.52-.95,4.44-2.26,5.42-4.81.3-.78.55-1.54.69-2.36l.8-4.75,1.47-.11c-.25,2.71-.81,5.37-2.79,7.56l3.34,2.87c.88-.98,1.43-2.03,1.91-3.18.67-1.74,1.05-3.48,1.27-5.31l.77-6.33-5.4.49.15-.92Z"/>
      <path class="cls-24" d="M408.7,215.87h-5.74c-.08,0-.23.03-.27.07-.04.05-.1.19-.1.26l-.35,3.85,2.21-.04c-.18,2.95-.71,5.44-3.24,7.37l2.81,2.59c1.2-.74,2.09-1.78,2.68-3.03.43-1,.78-2,.93-3.06l.5-3.37,1.23-.09-.52,3.43c-.39,1.69-.99,3.3-1.94,4.83l3.72,1.59c.77-1.23,1.24-2.55,1.58-3.93.36-1.54.58-3.02.8-4.58l.62-5.6-4.98.48.07-.75Z"/>
      <path class="cls-24" d="M390.29,225.31c.03-1.79.23-3.5.54-5.26.26-1.47.57-2.83.98-4.35h-4.4c-.6,2.67-1.03,5.28-1.32,7.99-.18,2.23-.24,4.37-.11,6.58l4.85-.72c1.73-.26,3.4-.73,5.09-1.3l-.48-4.32c-1.75.75-3.39,1.23-5.15,1.38Z"/>
      <polygon class="cls-24" points="381.74 215.27 380.39 230.93 384.61 230.49 385.95 215.25 381.74 215.27"/>
      <polygon class="cls-24" points="418.47 215.26 414.24 215.25 413.97 219.33 412.98 230.39 417.12 230.75 417.34 227.83 418.47 215.26"/>
      <polygon class="cls-24" points="397.37 215.27 396.1 229.91 400.31 229.87 401.59 215.27 397.37 215.27"/>
    </g>
  </g>
</svg>