<?xml version="1.0" encoding="UTF-8"?>
<svg id="_레이어_1" data-name="레이어 1" xmlns="http://www.w3.org/2000/svg" xmlns:xlink="http://www.w3.org/1999/xlink" viewBox="0 0 501.67 1100.75">
  <defs>
    <style>
      .cls-1 {
        fill: #fff;
      }

      .cls-2 {
        filter: url(#drop-shadow-7);
      }

      .cls-3, .cls-4, .cls-5 {
        font-weight: 700;
      }

      .cls-3, .cls-5 {
        font-family: KIMWILDgag-Bold, 'KIMWILDgag Bold';
      }

      .cls-4 {
        font-family: Pretendard-ExtraBold-KSCpc-EUC-H, Pretendard;
        font-size: 25px;
      }

      .cls-4, .cls-6, .cls-5 {
        fill: #4cab5e;
      }

      .cls-7 {
        fill: #4bb44f;
      }

      .cls-8, .cls-9 {
        font-size: 61.27px;
      }

      .cls-10 {
        font-size: 76.12px;
      }

      .cls-11, .cls-12 {
        fill: #f8f6f1;
      }

      .cls-9 {
        fill: none;
        stroke: #f8f6f1;
        stroke-miterlimit: 10;
        stroke-width: 2px;
      }

      .cls-12 {
        font-family: esamanruMedium, esamanruMedium;
        font-size: 22.35px;
      }

      .cls-5 {
        font-size: 23.34px;
      }
    </style>
    <filter id="drop-shadow-7" x="159.73" y="789.74" width="187.92" height="65.04" filterUnits="userSpaceOnUse">
      <feOffset dx="2.83" dy="2.83"/>
      <feGaussianBlur result="blur" stdDeviation="2.83"/>
      <feFlood flood-color="#000" flood-opacity=".5"/>
      <feComposite in2="blur" operator="in"/>
      <feComposite in="SourceGraphic"/>
    </filter>
  </defs>
  <rect class="cls-7" y="53.86" width="501.67" height="1046.88"/>
  <path class="cls-1" d="M23.48,53.86h454.71c12.96,0,23.48,10.52,23.48,23.48v57.19H0v-57.19c0-12.96,10.52-23.48,23.48-23.48Z" transform="translate(501.67 188.39) rotate(-180)"/>
  <text class="cls-4" transform="translate(183.23 102.05)"><tspan x="0" y="0">필터 저장완료</tspan></text>
  <text class="cls-12" transform="translate(45.94 664.05)"><tspan x="0" y="0">식성 필터가 성공적으로 저장되었습니다.</tspan></text>
  <text class="cls-3" transform="translate(153.17 474.71) skewX(-5)"><tspan class="cls-9"><tspan x="0" y="0">FILTER</tspan></tspan><tspan class="cls-11"><tspan class="cls-8" x="-74.6" y="91.34"> </tspan><tspan class="cls-10" x="-54.19" y="91.34">저장완료!</tspan></tspan></text>
  <g>
    <path class="cls-1" d="M227.44,340.77c.69,1.66,1.7,3.15,3.03,4.48l20.36,20.36,20.36-20.36c1.33-1.33,2.34-2.82,3.03-4.48.69-1.66,1.03-3.43,1.03-5.31,0-1.27-.17-2.5-.5-3.67-.33-1.17-.8-2.28-1.4-3.3-.6-1.03-1.32-1.96-2.17-2.8-.84-.84-1.78-1.56-2.8-2.17-1.03-.6-2.13-1.07-3.3-1.4-1.18-.33-2.4-.5-3.67-.5-1.09,0-2.12.11-3.08.32-.96.21-1.87.53-2.73.94-.86.42-1.68.93-2.46,1.53-.79.6-1.55,1.28-2.3,2.05-.75-.76-1.52-1.45-2.3-2.05-.79-.6-1.61-1.11-2.46-1.52-.86-.41-1.77-.73-2.73-.94-.96-.22-1.99-.33-3.08-.33-1.27,0-2.5.17-3.68.5-1.18.33-2.28.8-3.3,1.39s-1.95,1.32-2.8,2.17c-.85.85-1.57,1.78-2.17,2.8s-1.06,2.12-1.39,3.3c-.33,1.18-.5,2.41-.5,3.68,0,1.88.34,3.65,1.03,5.31Z"/>
    <path class="cls-6" d="M258.31,325.09c-.91.28-1.74.67-2.51,1.16-.76.49-1.49,1.06-2.18,1.72-.69.66-1.39,1.36-2.11,2.09l-.68.7-.62-.64c-.72-.75-1.43-1.45-2.12-2.11s-1.43-1.23-2.2-1.73c-.77-.5-1.61-.89-2.53-1.18-.91-.29-1.95-.44-3.11-.44-1.49,0-2.88.28-4.19.85-1.31.57-2.45,1.34-3.43,2.31s-1.75,2.12-2.31,3.43c-.57,1.31-.85,2.71-.85,4.19s.27,2.82.82,4.13c.54,1.31,1.33,2.47,2.35,3.49l18.2,18.22,18.2-18.22c1.02-1.02,1.8-2.18,2.35-3.49.54-1.31.82-2.69.82-4.13s-.28-2.88-.85-4.19c-.57-1.31-1.34-2.45-2.31-3.43-.98-.98-2.12-1.75-3.43-2.31-1.31-.57-2.71-.85-4.19-.85-1.16,0-2.19.14-3.1.42Z"/>
  </g>
  <g class="cls-2">
    <rect class="cls-11" x="165.46" y="795.62" width="170.75" height="47.7" rx="23.85" ry="23.85"/>
  </g>
  <text class="cls-5" transform="translate(176.92 825.21)"><tspan x="0" y="0">메인으로 가기</tspan></text>
  <rect class="cls-1" width="501.67" height="53.86"/>
</svg>