<?xml version="1.0" encoding="UTF-8"?>
<svg id="_레이어_1" data-name="레이어 1" xmlns="http://www.w3.org/2000/svg" xmlns:xlink="http://www.w3.org/1999/xlink" viewBox="0 0 501.67 1046.88">
  <defs>
    <style>
      .cls-1 {
        fill: url(#_무제_그라디언트_12);
      }

      .cls-2 {
        font-family: esamanruLight, esamanruLight;
        font-size: 20px;
      }

      .cls-2, .cls-3 {
        fill: #fff;
      }
    </style>
    <linearGradient id="_무제_그라디언트_12" data-name="무제 그라디언트 12" x1="250.83" y1="-1.27" x2="250.83" y2="1046.88" gradientUnits="userSpaceOnUse">
      <stop offset=".46" stop-color="#eb5e33"/>
      <stop offset="1" stop-color="#e1772d"/>
    </linearGradient>
  </defs>
  <rect class="cls-1" y="-1.27" width="501.67" height="1048.16"/>
  <g>
    <path class="cls-3" d="M397.82,441.25l-1.23,16.82-3.23,37.23c-9.2,4.43-19.99,5.43-29.31,4.19.21-3.41.58-6.17,1.3-9.33l22.63,1.4,1.77-18.19,4.35-29.68-43.75-.25-1.39,10.94-.78,9.07c7.82-.16,14.76-.1,22.18.78l-.95,7.96-21.78-.99c-2.94,15.8-4.93,31.25-6.15,47.24l20.28,2.17c9.79,1.05,19.43.57,29.42-1.57l-.47,6.91,21.77,3.92,7.76-88.64h-22.41Z"/>
    <path class="cls-3" d="M128.7,444.64l-41.05.24-1.07,6.22-1.41,16.35c6.39-.48,12.42-.82,18.78-.38-.47,6.78-1.27,13.11-3.18,19.56-1.84,5.7-4.62,10.81-9,15.03-3.17,2.82-6.5,4.91-10.33,6.77l8.89,20.82c12.66-4.76,22.28-11.37,27.24-24.17,1.51-3.91,2.77-7.73,3.47-11.85l4.04-23.84,7.39-.57c-1.25,13.63-4.06,26.96-14.02,37.97l16.76,14.41c4.4-4.94,7.16-10.18,9.6-15.98,3.37-8.72,5.28-17.47,6.4-26.65l3.89-31.8-27.12,2.46.73-4.6Z"/>
    <path class="cls-3" d="M294,444.34h-28.8c-.39-.01-1.15.13-1.37.36-.22.23-.48.94-.51,1.3l-1.78,19.31,11.08-.22c-.92,14.83-3.55,27.31-16.27,37l14.11,12.99c6.01-3.71,10.52-8.93,13.46-15.24,2.18-5.04,3.9-10.03,4.69-15.37l2.49-16.94,6.16-.43-2.63,17.21c-1.96,8.49-4.95,16.56-9.72,24.26l18.66,7.99c3.89-6.18,6.21-12.8,7.95-19.75,1.83-7.74,2.94-15.17,4.02-23.01l3.11-28.13-25,2.42.36-3.74Z"/>
    <path class="cls-3" d="M201.5,491.77c.15-8.98,1.14-17.56,2.7-26.41,1.31-7.39,2.87-14.23,4.93-21.85l-22.12.02c-2.99,13.37-5.15,26.51-6.62,40.11-.91,11.2-1.19,21.93-.54,33.03l24.36-3.62c8.67-1.29,17.07-3.66,25.57-6.52l-2.4-21.67c-8.78,3.78-17.03,6.18-25.87,6.91Z"/>
    <polygon class="cls-3" points="158.58 441.37 151.81 520.01 173 517.8 179.7 441.27 158.58 441.37"/>
    <polygon class="cls-3" points="343.04 441.28 321.79 441.27 320.46 461.75 315.48 517.28 336.25 519.11 337.35 504.43 343.04 441.28"/>
    <polygon class="cls-3" points="237.07 441.33 230.67 514.87 251.86 514.68 258.26 441.33 237.07 441.33"/>
  </g>
  <text class="cls-2" transform="translate(137.45 599.77)"><tspan x="0" y="0">맛있는 끼니, 마음 맞는 끼리</tspan></text>
</svg>