<?xml version="1.0" encoding="UTF-8"?>
<svg id="_레이어_1" data-name="레이어 1" xmlns="http://www.w3.org/2000/svg" xmlns:xlink="http://www.w3.org/1999/xlink" viewBox="0 0 501.67 1100.75">
  <defs>
    <style>
      .cls-1, .cls-2 {
        fill: #d4d5da;
      }

      .cls-1, .cls-3 {
        font-family: Pretendard-SemiBold-KSCpc-EUC-H, Pretendard;
        font-size: 13.48px;
        font-weight: 600;
      }

      .cls-4 {
        fill: url(#_무제_그라디언트_12);
      }

      .cls-5 {
        font-family: KIMWILDgag-Bold, 'KIMWILDgag Bold';
        text-decoration: underline;
      }

      .cls-5, .cls-6, .cls-3, .cls-7, .cls-8 {
        fill: #eb5e33;
      }

      .cls-5, .cls-9 {
        font-size: 25px;
        font-weight: 700;
      }

      .cls-10 {
        filter: url(#drop-shadow-5);
      }

      .cls-11, .cls-7 {
        font-size: 17.16px;
      }

      .cls-11, .cls-7, .cls-12 {
        font-family: esamanruLight, esamanruLight;
      }

      .cls-11, .cls-12 {
        fill: #7c7c7c;
      }

      .cls-13, .cls-14 {
        fill: #fff;
      }

      .cls-15 {
        filter: url(#drop-shadow-4);
      }

      .cls-16 {
        fill: url(#_무제_그라디언트_4);
      }

      .cls-6 {
        font-family: esamanruMedium, esamanruMedium;
        font-size: 21.46px;
      }

      .cls-17, .cls-9 {
        fill: #f8f6f1;
      }

      .cls-18 {
        fill: url(#_무제_그라디언트_12-2);
      }

      .cls-14 {
        stroke-miterlimit: 10;
      }

      .cls-14, .cls-19 {
        stroke: #eb5e33;
      }

      .cls-12 {
        font-size: 29.15px;
      }

      .cls-19 {
        fill: none;
        stroke-linecap: square;
        stroke-linejoin: round;
        stroke-width: 2px;
      }

      .cls-20 {
        fill: url(#_무제_그라디언트_3);
      }

      .cls-9 {
        font-family: Pretendard-ExtraBold-KSCpc-EUC-H, Pretendard;
      }
    </style>
    <linearGradient id="_무제_그라디언트_4" data-name="무제 그라디언트 4" x1="0" y1="67.27" x2="501.67" y2="67.27" gradientUnits="userSpaceOnUse">
      <stop offset="0" stop-color="#eb5e33"/>
      <stop offset=".41" stop-color="#eb5e33"/>
    </linearGradient>
    <filter id="drop-shadow-4" x="87.11" y="817.1" width="367.92" height="56.64" filterUnits="userSpaceOnUse">
      <feOffset dx="2.83" dy="2.83"/>
      <feGaussianBlur result="blur" stdDeviation="2.83"/>
      <feFlood flood-color="#000" flood-opacity=".5"/>
      <feComposite in2="blur" operator="in"/>
      <feComposite in="SourceGraphic"/>
    </filter>
    <linearGradient id="_무제_그라디언트_3" data-name="무제 그라디언트 3" x1="423.87" y1="862.25" x2="423.87" y2="822.83" gradientUnits="userSpaceOnUse">
      <stop offset="0" stop-color="#eb5e33"/>
      <stop offset=".41" stop-color="#eb5e33"/>
    </linearGradient>
    <filter id="drop-shadow-5" x="47.75" y="603.26" width="412.08" height="101.76" filterUnits="userSpaceOnUse">
      <feOffset dx="2.83" dy="2.83"/>
      <feGaussianBlur result="blur-2" stdDeviation="2.83"/>
      <feFlood flood-color="#000" flood-opacity=".5"/>
      <feComposite in2="blur-2" operator="in"/>
      <feComposite in="SourceGraphic"/>
    </filter>
    <linearGradient id="_무제_그라디언트_12" data-name="무제 그라디언트 12" x1="250.83" y1="609.15" x2="250.83" y2="693.62" gradientUnits="userSpaceOnUse">
      <stop offset=".46" stop-color="#eb5e33"/>
      <stop offset="1" stop-color="#e1772d"/>
    </linearGradient>
    <linearGradient id="_무제_그라디언트_12-2" data-name="무제 그라디언트 12" x1="234.24" y1="941.43" x2="234.24" y2="976.17" xlink:href="#_무제_그라디언트_12"/>
  </defs>
  <rect class="cls-17" y="53.86" width="501.67" height="1046.88"/>
  <path class="cls-16" d="M0,0v111.05C0,124.02,10.51,134.53,23.48,134.53h454.71c12.97,0,23.48-10.51,23.48-23.48V0H0Z"/>
  <text class="cls-5" transform="translate(114.62 205.73)"><tspan x="0" y="0">숭실대 동아리 회식 (32)</tspan></text>
  <g class="cls-15">
    <rect class="cls-2" x="92.8" y="822.83" width="350.77" height="39.41" rx="18.37" ry="18.37"/>
  </g>
  <rect class="cls-20" x="404.16" y="822.83" width="39.41" height="39.41" rx="18.37" ry="18.37"/>
  <text class="cls-11" transform="translate(105.13 846.76)"><tspan x="0" y="0">자유롭게 메시지를 입력해주세요.</tspan></text>
  <text class="cls-12" transform="translate(57.66 851.32)"><tspan x="0" y="0">+</tspan></text>
  <path class="cls-13" d="M432.65,834.58v.48l-.07.43-4.92,15.2c-.17.37-.38.61-.81.63h-.45c-.4-.02-.62-.23-.79-.57l-2.07-6.22c1.23-1.8,2.48-3.6,3.74-5.39l-5.42,3.73c-2.09-.68-4.17-1.37-6.26-2.08-.33-.17-.5-.4-.53-.77v-.45c.01-.48.34-.67.73-.84l15.28-4.91c.64-.16,1.5-.06,1.56.75Z"/>
  <g>
    <path class="cls-19" d="M126.73,530.01c.24.23.35.52.32.87-.03.32-.17.6-.42.83-.31.26-.69.39-1.13.39h-11.66l-2.61,10.83c.85-.79,1.82-1.37,2.9-1.75,1.14-.41,2.37-.61,3.68-.61,3.11,0,5.47,1.14,7.08,3.41,1.48,2.04,2.09,4.57,1.82,7.6-.27,3.09-1.31,5.6-3.11,7.56-2.09,2.27-4.99,3.41-8.68,3.41-2.42,0-4.45-.57-6.1-1.7-1.64-1.16-2.59-2.69-2.83-4.58-.08-.44,0-.81.23-1.14.23-.32.54-.52.93-.61.36-.09.69-.04.99.13.33.17.54.5.61.96.17,1.34.81,2.42,1.9,3.23,1.15.84,2.7,1.27,4.65,1.27,2.42,0,4.44-.87,6.08-2.62,1.51-1.63,2.37-3.59,2.57-5.9.21-2.36-.26-4.34-1.4-5.94-1.27-1.75-3.1-2.62-5.49-2.62-1.37,0-2.65.31-3.83.92-.98.52-1.8,1.24-2.46,2.14-.66.84-1.32,1.12-1.99.83-.67-.32-.88-.93-.63-1.83l3.62-15.42h13.93c.44,0,.78.12,1.02.35Z"/>
    <path class="cls-19" d="M147.38,526.08c.65.17.85.6.59,1.27l-15.31,37.21c-.33.73-.82,1-1.47.83-.66-.15-.85-.57-.59-1.27l15.49-37.29c.23-.64.66-.89,1.29-.74Z"/>
    <path class="cls-19" d="M153.54,560.93c-1.55-1.19-2.35-2.94-2.38-5.24-.04-.84.39-1.35,1.31-1.53.89-.15,1.39.23,1.52,1.13.08,1.4.51,2.5,1.28,3.32.9.99,2.23,1.48,3.98,1.48,2.94,0,5.17-1.24,6.7-3.71,1.32-2.12,2.29-5.52,2.9-10.17-.82,1.11-1.88,2.01-3.16,2.71-1.62.87-3.46,1.31-5.53,1.31-2.36,0-4.32-.7-5.89-2.1-1.97-1.75-2.81-4.34-2.51-7.77.33-3.73,1.51-6.58,3.54-8.56,1.97-1.92,4.62-2.88,7.94-2.88,2.74,0,4.83.82,6.29,2.44,2.02,2.24,2.79,6.03,2.33,11.35-.62,7.1-1.91,12.17-3.86,15.2-1.99,3.09-5.01,4.63-9.05,4.63-2.24,0-4.04-.54-5.4-1.62ZM168.04,533.94c-1.22-1.72-3.02-2.58-5.41-2.58-2.24,0-4.08.77-5.53,2.32-1.48,1.57-2.33,3.7-2.57,6.38-.19,2.18.19,3.96,1.15,5.33,1.14,1.63,2.93,2.45,5.38,2.45,2.18,0,4.07-.76,5.66-2.27,1.59-1.49,2.47-3.33,2.67-5.55.22-2.47-.23-4.5-1.35-6.07Z"/>
    <path class="cls-19" d="M229.24,551.67c-.06.73-.46,1.09-1.19,1.09h-15.98l-.86,9.83c-.04.43-.2.78-.48,1.04-.25.23-.54.35-.86.35s-.59-.12-.8-.35c-.21-.26-.29-.61-.26-1.04l.86-9.83h-15.85c-.76,0-1.1-.36-1.04-1.09.03-.73.47-1.09,1.32-1.09h34.06c.76,0,1.12.36,1.08,1.09ZM227.42,528.61c.21.23.31.5.28.79s-.15.55-.37.79c-.22.23-.53.35-.9.35h-23.58c-.73,0-1.3.17-1.71.52-.35.35-.55.85-.61,1.49l-.26,2.93h25.63c.84,0,1.23.36,1.17,1.09-.07.76-.51,1.13-1.32,1.13h-25.68l-.31,3.54c-.06.64.05,1.09.32,1.35.24.29.72.44,1.45.44h23.76c.79,0,1.15.36,1.08,1.09-.04.76-.45,1.14-1.24,1.14h-24.37c-1.19,0-2.11-.32-2.75-.96-.7-.64-1-1.56-.89-2.75l.81-9.26c.11-1.22.54-2.18,1.3-2.88.79-.73,1.89-1.09,3.28-1.09h23.97c.41,0,.72.1.93.31Z"/>
    <path class="cls-19" d="M247.07,551.5c.25-.2.56-.31.94-.31.35,0,.63.1.85.31.27.23.39.55.35.96l-.55,6.29h12.88l.56-6.42c.07-.81.54-1.21,1.41-1.18.87,0,1.28.41,1.2,1.22l-.56,6.38h7.86c.41,0,.72.1.93.31.21.23.31.5.28.79-.03.29-.17.55-.42.79-.25.23-.57.35-.95.35h-34.28c-.32,0-.56-.12-.71-.35-.15-.23-.21-.5-.15-.79.06-.29.19-.55.42-.79.25-.2.58-.31.99-.31h7.9l.55-6.29c.04-.41.2-.73.48-.96ZM271.35,547.09c-.04.76-.42,1.13-1.15,1.13h-28.43c-.7,0-1-.38-.9-1.13.06-.73.47-1.09,1.23-1.09h5.42l-.31-11.92c-.02-.41.11-.74.39-1,.22-.2.51-.32.86-.35.35-.03.65.04.9.22.27.2.42.51.44.92l.29,12.14h12.23l2.46-12.1c.06-.41.24-.71.52-.92.28-.17.59-.25.94-.22s.61.15.8.35c.24.26.32.61.26,1.05l-2.39,11.83h5.42c.76,0,1.1.36,1.04,1.09ZM272.58,528.96c.19.2.27.47.24.79,0,.29-.11.54-.33.74-.23.26-.52.39-.87.39h-28.17c-.79,0-1.15-.38-1.08-1.13.04-.76.46-1.14,1.28-1.14h27.99c.38,0,.69.12.93.35Z"/>
    <path class="cls-19" d="M333.68,546.3c.21.23.31.5.28.79-.03.29-.17.55-.42.79-.25.23-.57.35-.95.35h-34.28c-.32,0-.56-.12-.71-.35-.15-.23-.2-.5-.15-.79.05-.29.19-.55.42-.79.25-.2.58-.31.99-.31h15.63l.41-4.72c.07-.79.53-1.18,1.37-1.18.85-.03,1.24.33,1.17,1.09l-.42,4.8h15.72c.41,0,.72.1.93.31ZM326.84,553.11c2.29,1.08,3.35,2.61,3.18,4.58-.17,1.92-1.5,3.44-3.98,4.54-2.73,1.22-6.67,1.83-11.82,1.83s-9.03-.61-11.54-1.83c-2.26-1.11-3.31-2.62-3.14-4.54.17-1.95,1.48-3.48,3.94-4.58,2.73-1.22,6.68-1.83,11.86-1.83s9.01.61,11.5,1.83ZM332.48,529.62c-.07.76-.46,1.14-1.19,1.14h-12.88c-.03,1.98,1.26,3.73,3.87,5.24,2.58,1.51,5.82,2.47,9.75,2.88.41.03.7.17.88.44.15.26.19.55.1.87-.09.35-.27.63-.55.83-.31.23-.67.32-1.07.26-3.6-.41-6.77-1.31-9.5-2.71-2.59-1.34-4.27-2.84-5.02-4.5-1.02,1.66-2.94,3.16-5.76,4.5-2.95,1.4-6.24,2.3-9.89,2.71-.47.06-.86-.03-1.16-.26-.24-.2-.38-.48-.41-.83-.06-.32.02-.61.25-.87.26-.26.63-.41,1.13-.44,3.82-.38,7.15-1.32,9.99-2.84,2.9-1.54,4.52-3.3,4.87-5.28h-12.79c-.82,0-1.17-.38-1.08-1.14.06-.73.5-1.09,1.32-1.09h28.17c.73,0,1.06.36,1,1.09ZM305.23,554.6c-1.98.7-3.03,1.73-3.15,3.1-.11,1.31.76,2.3,2.62,2.97,2.06.79,5.3,1.18,9.72,1.18s7.69-.39,9.88-1.18c2.01-.67,3.07-1.66,3.19-2.97.12-1.37-.77-2.4-2.65-3.1-2.06-.76-5.29-1.13-9.68-1.13s-7.73.38-9.92,1.13Z"/>
    <path class="cls-19" d="M351.4,551.5c.25-.2.56-.31.94-.31.35,0,.63.1.85.31.27.23.39.55.35.96l-.55,6.29h12.88l.56-6.42c.07-.81.54-1.21,1.41-1.18.87,0,1.27.41,1.2,1.22l-.56,6.38h7.86c.41,0,.72.1.93.31.21.23.31.5.28.79-.03.29-.16.55-.42.79-.25.23-.57.35-.95.35h-34.28c-.32,0-.56-.12-.71-.35-.15-.23-.21-.5-.15-.79.05-.29.19-.55.42-.79.25-.2.58-.31.99-.31h7.9l.55-6.29c.04-.41.2-.73.48-.96ZM374.81,529.49c.67.61.96,1.5.86,2.66l-.36,4.06c-.11,1.22-.55,2.1-1.32,2.62-.68.5-1.75.74-3.21.74h-19.74c-.7,0-1.21.13-1.52.39-.32.26-.5.7-.55,1.31l-.39,4.41c-.05.58.06,1,.33,1.27.3.26.82.39,1.58.39h23.49c.38,0,.68.1.89.3.21.23.31.5.28.79-.03.29-.15.55-.38.79-.22.23-.53.35-.9.35h-24.63c-1.11,0-1.95-.33-2.53-1-.58-.7-.82-1.64-.71-2.84l.41-4.72c.09-1.08.49-1.95,1.19-2.62.79-.73,1.84-1.09,3.15-1.09h19.83c.64,0,1.13-.1,1.47-.31.4-.23.62-.57.66-1l.31-3.58c.05-.58-.09-.99-.42-1.22-.3-.2-.82-.31-1.55-.31h-22.4c-.84,0-1.23-.38-1.17-1.13.07-.76.54-1.14,1.41-1.14h22.79c1.4,0,2.43.29,3.11.87Z"/>
    <path class="cls-19" d="M390.75,558.88c.34.44.48.98.43,1.62-.05.58-.29,1.09-.7,1.53-.45.47-1.01.7-1.68.7s-1.23-.23-1.6-.7c-.31-.44-.44-.95-.39-1.53.06-.64.28-1.18.67-1.62.45-.46,1.02-.7,1.72-.7s1.19.23,1.56.7ZM390.78,529.05c.28-.23.63-.35,1.04-.35.38,0,.69.12.93.35.3.23.43.55.4.96l-.9,10.26-1.97,12.49c-.09.7-.34,1.05-.75,1.05-.38,0-.55-.35-.52-1.05l.35-12.49.9-10.26c.04-.41.21-.73.52-.96Z"/>
  </g>
  <path class="cls-8" d="M337.24,446l-.72,9.89-1.9,21.89c-5.41,2.61-11.75,3.19-17.23,2.46.12-2.01.34-3.63.76-5.48l13.3.82,1.04-10.7,2.55-17.45-25.72-.15-.82,6.43-.46,5.33c4.6-.09,8.68-.06,13.04.46l-.56,4.68-12.8-.58c-1.73,9.29-2.9,18.37-3.62,27.77l11.92,1.28c5.75.62,11.42.33,17.3-.92l-.28,4.06,12.8,2.3,4.56-52.1h-13.17Z"/>
  <path class="cls-8" d="M179.04,447.99l-24.13.14-.63,3.66-.83,9.61c3.75-.28,7.3-.48,11.04-.22-.28,3.99-.75,7.7-1.87,11.5-1.08,3.35-2.72,6.35-5.29,8.84-1.86,1.66-3.82,2.89-6.07,3.98l5.22,12.24c7.44-2.8,13.1-6.69,16.01-14.21.89-2.3,1.63-4.55,2.04-6.96l2.37-14.01,4.34-.33c-.73,8.01-2.39,15.85-8.24,22.32l9.85,8.47c2.58-2.91,4.21-5.99,5.64-9.39,1.98-5.12,3.1-10.27,3.76-15.67l2.29-18.69-15.94,1.45.43-2.71Z"/>
  <path class="cls-8" d="M276.21,447.82h-16.93c-.23,0-.68.08-.8.21-.13.13-.28.55-.3.76l-1.05,11.35,6.51-.13c-.54,8.72-2.09,16.06-9.57,21.75l8.3,7.64c3.53-2.18,6.18-5.25,7.91-8.96,1.28-2.96,2.29-5.89,2.75-9.04l1.46-9.96,3.62-.26-1.55,10.12c-1.15,4.99-2.91,9.74-5.71,14.26l10.97,4.7c2.28-3.63,3.65-7.53,4.67-11.61,1.08-4.55,1.73-8.92,2.36-13.53l1.83-16.54-14.69,1.43.21-2.2Z"/>
  <path class="cls-8" d="M221.83,475.69c.09-5.28.67-10.32,1.59-15.52.77-4.34,1.69-8.36,2.9-12.84h-13c-1.76,7.87-3.03,15.59-3.89,23.59-.54,6.59-.7,12.89-.32,19.42l14.32-2.13c5.1-.76,10.04-2.15,15.03-3.83l-1.41-12.74c-5.16,2.22-10.01,3.64-15.2,4.06Z"/>
  <polygon class="cls-8" points="196.61 446.07 192.62 492.3 205.08 490.99 209.02 446.01 196.61 446.07"/>
  <polygon class="cls-8" points="305.04 446.01 292.54 446.01 291.76 458.05 288.83 490.69 301.04 491.77 301.69 483.14 305.04 446.01"/>
  <polygon class="cls-8" points="242.75 446.05 238.98 489.28 251.44 489.16 255.2 446.04 242.75 446.05"/>
  <g class="cls-10">
    <rect class="cls-4" x="53.44" y="609.15" width="394.78" height="84.47"/>
  </g>
  <g>
    <path class="cls-13" d="M172.94,653.91c-.05.56-.35.84-.91.84h-12.29l-.66,7.56c-.03.33-.15.6-.37.8-.19.18-.42.27-.66.27s-.45-.09-.61-.27c-.16-.2-.23-.47-.2-.8l.66-7.56h-12.19c-.58,0-.85-.28-.8-.84.03-.56.36-.84,1.01-.84h26.19c.58,0,.86.28.83.84ZM171.54,636.18c.16.18.24.38.22.61-.02.22-.12.42-.29.6-.17.18-.4.27-.7.27h-18.13c-.56,0-1,.13-1.31.4-.27.27-.43.65-.47,1.14l-.2,2.25h19.71c.65,0,.95.28.9.84-.05.58-.39.87-1.02.87h-19.74l-.24,2.72c-.04.49.04.84.25,1.04.18.22.55.34,1.11.34h18.26c.6,0,.88.28.83.84-.03.58-.34.87-.95.87h-18.73c-.92,0-1.62-.25-2.12-.74-.54-.49-.77-1.2-.69-2.12l.62-7.12c.08-.94.42-1.68,1-2.21.61-.56,1.45-.84,2.52-.84h18.43c.31,0,.55.08.72.23Z"/>
    <path class="cls-13" d="M186.65,653.77c.19-.16.43-.23.73-.23.27,0,.48.08.65.23.21.18.3.43.27.74l-.42,4.83h9.9l.43-4.93c.05-.63.42-.93,1.09-.91.67,0,.98.31.92.94l-.43,4.9h6.04c.31,0,.55.08.72.23.16.18.24.38.22.61s-.13.42-.32.6c-.19.18-.44.27-.73.27h-26.35c-.25,0-.43-.09-.55-.27-.12-.18-.16-.38-.11-.6.04-.22.15-.42.32-.61.19-.16.45-.23.76-.23h6.08l.42-4.83c.03-.31.15-.56.37-.74ZM205.31,650.38c-.03.58-.32.87-.88.87h-21.86c-.54,0-.77-.29-.7-.87.05-.56.36-.84.95-.84h4.16l-.24-9.17c-.02-.31.08-.57.3-.77.17-.16.39-.25.66-.27.27-.02.5.03.69.17.21.16.32.39.34.7l.22,9.33h9.4l1.89-9.3c.05-.31.18-.55.4-.71.21-.13.45-.19.72-.17.27.02.47.11.61.27.18.2.25.47.2.81l-1.84,9.1h4.16c.58,0,.85.28.8.84ZM206.26,636.45c.14.16.2.36.18.61,0,.22-.08.41-.25.57-.17.2-.4.3-.66.3h-21.65c-.6,0-.88-.29-.83-.87.03-.58.36-.87.98-.87h21.52c.29,0,.53.09.71.27Z"/>
    <path class="cls-13" d="M241.01,636.85c.58.51.83,1.2.76,2.05l-.11,1.24c-.22,2.46-1.61,4.58-4.18,6.35-2.76,1.88-6.27,2.9-10.54,3.05-.72.02-1.06-.25-1.04-.81.03-.56.4-.85,1.12-.87,3.77-.16,6.82-.98,9.15-2.48,2.2-1.41,3.4-3.17,3.58-5.27l.08-.94c.04-.47-.07-.82-.35-1.04-.25-.22-.61-.33-1.08-.33h-10.04c-.63,0-.92-.29-.86-.87.03-.56.35-.84.98-.84h10.27c.94,0,1.69.26,2.25.77ZM249.24,652.87c.47.45.68,1.07.61,1.88l-.12,1.34c-.06.67-.35,1.22-.88,1.65-.53.45-1.2.67-2.01.67h-15.91c-.45,0-.78.09-1,.27-.17.16-.27.41-.3.77l-.08.94c-.03.34.05.57.24.7.17.13.45.2.85.2h18.46c.31,0,.56.08.75.24.14.18.21.38.22.6-.02.22-.12.43-.29.6-.17.18-.41.27-.69.27h-19.17c-.76,0-1.36-.21-1.79-.64-.45-.45-.65-1.03-.59-1.75l.13-1.51c.07-.76.36-1.36.86-1.81.51-.42,1.13-.64,1.87-.64h15.98c.4,0,.71-.07.92-.2.26-.13.4-.34.42-.6l.08-.87c.03-.38-.04-.66-.23-.84-.19-.16-.52-.24-.99-.24h-17.56c-.67,0-.98-.29-.93-.87.03-.56.39-.84,1.08-.84h17.83c.98,0,1.73.22,2.22.67ZM249.96,649.64c-.19.16-.42.23-.69.23-.29,0-.52-.08-.69-.23-.19-.18-.27-.41-.24-.7l.15-1.76h-5.94c-.34,0-.6-.09-.78-.27-.16-.18-.24-.38-.22-.6s.14-.42.35-.6c.22-.16.5-.24.86-.24h5.88l.35-4.03h-5.57c-.36,0-.64-.1-.85-.3-.17-.16-.25-.35-.25-.57,0-.25.08-.45.25-.6.19-.18.45-.27.76-.27h5.81l.3-3.39c.03-.33.15-.59.37-.77.19-.16.43-.24.73-.24.27,0,.49.08.65.23.21.18.3.44.27.77l-1.1,12.63c-.03.29-.16.53-.4.7Z"/>
    <path class="cls-13" d="M267.77,645.98c.19-.18.42-.27.66-.27s.45.09.61.27c.19.18.26.42.24.74l-1.08,12.29c1.74-.13,3.44-.37,5.1-.71,1.91-.36,3.58-.82,5.02-1.38.35-.13.64-.16.88-.07.22.09.36.25.43.47.07.22.05.46-.06.71-.11.22-.29.4-.55.54-2.29.85-5.06,1.47-8.32,1.85-3.08.38-6.75.57-11.03.57-.38,0-.66-.1-.85-.3-.19-.16-.27-.35-.25-.57.02-.25.12-.45.29-.6.22-.18.48-.27.8-.27.94,0,2-.01,3.19-.03,1.34-.02,2.51-.04,3.5-.07l1.09-12.42c.03-.31.14-.56.33-.74ZM277.91,637.15c.56.54.8,1.25.72,2.15l-.59,6.78c-.16,1.79-.46,3.45-.9,4.97-.47,1.59-1.06,2.94-1.77,4.06-.2.27-.45.44-.75.5-.27.07-.53.03-.76-.1-.26-.13-.42-.31-.49-.54-.07-.27.01-.55.24-.84.71-.96,1.27-2.13,1.68-3.49.38-1.25.64-2.76.8-4.53l.58-6.68c.04-.45-.09-.79-.38-1.04-.29-.25-.7-.37-1.21-.37h-12.12c-.58,0-.85-.29-.79-.87.05-.56.38-.84.98-.84h12.22c1.12,0,1.97.28,2.54.84ZM287.46,648.4c.59,0,.86.27.81.81-.03.56-.32.84-.89.84h-3.75l-1.08,12.36c-.03.29-.16.52-.4.7-.2.18-.43.27-.69.27s-.49-.09-.65-.27c-.18-.18-.26-.43-.24-.74l2.29-26.22c.05-.6.4-.91,1.05-.91s.98.3.93.91l-1.07,12.25h3.69Z"/>
    <path class="cls-13" d="M307.38,651.72c.19-.16.42-.22.69-.2.25,0,.45.09.61.27.21.18.3.43.27.74l-.6,6.82h12.05c.31,0,.55.08.72.23.16.18.24.38.22.61s-.13.42-.32.6c-.19.18-.44.27-.73.27h-26.35c-.25,0-.43-.09-.55-.27-.12-.18-.16-.38-.11-.6.04-.22.15-.42.32-.61.19-.16.45-.23.76-.23h12.05l.61-6.95c.03-.29.15-.51.36-.67ZM319.07,635.94c.19-.18.44-.27.73-.27.27,0,.49.08.65.23.21.18.3.43.27.74l-.96,11.01c-.08.94-.44,1.66-1.06,2.15-.6.49-1.42.74-2.45.74h-16.35c-.92,0-1.64-.23-2.15-.71-.54-.49-.77-1.17-.69-2.05l.97-11.04c.03-.34.15-.6.37-.81.19-.16.43-.24.73-.24.27,0,.49.08.65.24.21.18.3.44.27.77l-.36,4.13h18.67l.36-4.13c.03-.34.15-.59.37-.77ZM299.52,642.59l-.42,4.8c-.05.54.03.92.24,1.14.23.22.64.33,1.25.33h15.44c.58,0,1-.1,1.27-.3.27-.22.42-.62.48-1.21l.42-4.77h-18.67Z"/>
    <path class="cls-13" d="M344.11,637.19c.58.56.82,1.33.74,2.32l-.35,3.96c-.45,5.15-2.16,9.22-5.13,12.22-2.75,2.8-6.2,4.33-10.34,4.6-.63.04-.94-.22-.94-.81,0-.56.32-.86.95-.91,3.88-.4,6.96-1.8,9.23-4.2,2.46-2.6,3.9-6.26,4.32-10.98l.34-3.93c.04-.47-.06-.83-.31-1.07-.27-.25-.66-.37-1.18-.37h-9.97c-.63,0-.92-.29-.86-.87.03-.56.35-.84.98-.84h9.94c1.12,0,1.98.29,2.58.87ZM351.91,663.1c-.19.18-.43.27-.69.27-.29,0-.52-.09-.68-.27-.18-.2-.26-.46-.23-.77l2.29-26.12c.03-.29.15-.53.36-.71.19-.13.43-.2.72-.2.27,0,.49.07.65.2.21.18.3.41.27.71l-2.29,26.12c-.03.31-.16.57-.4.77Z"/>
  </g>
  <text class="cls-6" transform="translate(75.97 279.5)"><tspan x="0" y="0">방장</tspan></text>
  <rect class="cls-14" x="53.44" y="300.34" width="299.88" height="39.41" rx="18.37" ry="18.37"/>
  <text class="cls-7" transform="translate(66.06 324.27)"><tspan x="0" y="0">5월 9일 메뉴 투표가 종료되었습니다.</tspan></text>
  <text class="cls-9" transform="translate(172.43 102.05)"><tspan x="0" y="0">그룹식사 솔루션</tspan></text>
  <g>
    <g>
      <path class="cls-2" d="M66.45,941.43c.59.02,1.11.19,1.55.51l15.45,14.6c.53.47.74,1.04.78,1.72v1.09c-.07,1.82-2,2.94-3.79,2.8v10.72c-.3,1.71-1.53,3.2-3.45,3.3h-6.81c-.52-.05-.82-.3-.92-.79v-8.43c-.11-.77-.48-1.25-1.27-1.5h-4.23c-.8.26-1.15.73-1.26,1.5v8.24c-.09.55-.29.95-.93.98h-6.81c-1.92-.09-3.17-1.6-3.44-3.31v-10.72c-1.8.13-3.65-.95-3.8-2.74v-1.22c.04-.64.27-1.18.77-1.63l15.37-14.54c.44-.42.98-.54,1.58-.59h1.22Z"/>
      <text class="cls-1" transform="translate(59.7245 1000.2931) scale(1.0569 1)"><tspan x="0" y="0">홈</tspan></text>
    </g>
    <g>
      <polygon class="cls-2" points="147.93 954.4 147.11 954.4 147.4 956.31 147.93 954.4"/>
      <path class="cls-2" d="M162.08,941.43h-25.13c-.78,0-1.41.6-1.41,1.34v32.07c0,.74.63,1.34,1.41,1.34h25.13c.78,0,1.41-.6,1.41-1.34v-32.07c0-.74-.63-1.34-1.41-1.34ZM142.72,952.56h1.44l-.62-2.66,2.83-.32.46,2.98h1.61l.71-2.59,1.28.02.53,2.57h1.6l.74-2.86h2.91l-.93,2.86h1.04v1.85h-1.65l-1.66,5.14-2.3.03-1.04-5.17h-.14l-.8,5.27h-2.88l-1.25-5.27h-1.87v-1.85ZM159.94,968.71h-20.85v-1.39h20.85v1.39ZM159.94,964.54h-20.85v-1.39h20.85v1.39Z"/>
      <polygon class="cls-2" points="152.07 954.4 151.32 954.4 151.66 956.02 152.07 954.4"/>
      <text class="cls-1" transform="translate(137.2011 1000.2931) scale(1.0569 1)"><tspan x="0" y="0">스캔</tspan></text>
    </g>
    <g>
      <text class="cls-1" transform="translate(392.5781 1000.2931) scale(1.0569 1)"><tspan x="0" y="0">마이페이지</tspan></text>
      <g>
        <path class="cls-2" d="M421.34,972.17c-3.36-2.57-7.9-3.68-12.39-3.89-.47-.02-.87-.1-1.36-.06-.97.08-1.89-.49-1.89-1.36l.02-20.74c0-.81,1.06-1.27,1.84-1.22l1.12.07c2.59.16,5.12.53,7.47,1.45,2.49.98,4.72,2.49,5.96,4.56v21.71c-.33-.08-.49-.31-.77-.53Z"/>
        <path class="cls-2" d="M435.73,968.44c-3.72.37-7.87,1.69-10.5,3.87-.19.16-.34.33-.61.39v-21.71c1.22-2.05,3.48-3.6,5.95-4.56,2.35-.92,4.88-1.29,7.47-1.45l1.12-.07c.78-.05,1.85.42,1.85,1.22v20.88c0,.83-1.12,1.3-1.94,1.21-.48-.05-.79.04-1.2.06s-.83.03-1.26.07l-.88.09Z"/>
      </g>
    </g>
    <g>
      <text class="cls-3" transform="translate(221.9325 1000.2931) scale(1.0569 1)"><tspan x="0" y="0">채팅</tspan></text>
      <path class="cls-18" d="M253.68,956.5c-.15-5.05-3.71-9.45-8.13-12.07-10.87-6.45-27.5-2.3-30.6,10.34l-.13,1.71-.03,2.37c.04,3.47,1.88,6.66,4.26,9.21.62,2.13-.17,4.52-1.89,6.15-.43.58-.29,1.43.38,1.79.33.18,1.41.19,1.81.13,2.9-.43,5.5-1.24,7.59-3.29,6.25,2.09,13.52,1.39,19.12-2.14,4.18-2.63,7.47-6.95,7.65-11.76l-.02-2.43Z"/>
    </g>
    <g>
      <text class="cls-1" transform="translate(310.83 1000.2931) scale(1.0569 1)"><tspan x="0" y="0">밥약</tspan></text>
      <path class="cls-2" d="M323.78,941.43c1.23.06,2.36.56,3.08,1.53,2.77-1.1,6.08.74,6.5,3.53,2.95.4,4.89,3.51,3.73,6.12,1.06.68,1.53,1.85,1.8,2.98,1.37-.07,2.34.04,2.38,1.54.07,2.62-.96,5.8-2.33,8.1-1.69,2.84-4.24,5.26-7.31,6.74.35,1.87-.94,4.12-3.22,4.2h-10.57c-2.27-.09-3.56-2.29-3.22-4.2-5.63-2.68-9.67-8.82-9.63-14.74,0-.91.25-1.5,1.32-1.64h1.11c.16-1.15.75-2.31,1.75-2.99-1.16-2.61.79-5.72,3.73-6.11.42-2.79,3.73-4.62,6.5-3.53.67-.92,1.82-1.5,3.01-1.54h1.36ZM336.26,955.73c-.34-1.55-1.78-1.52-2.02-2.27-.12-.39-.08-.76.14-1.07.55-.74.63-1.68.13-2.47-.46-.72-1.31-1.18-2.27-1.1-.74.06-1.42-.49-1.35-1.22.08-.92-.37-1.76-1.17-2.21s-1.83-.39-2.61.12c-.63.41-1.48.2-1.79-.44-.42-.84-1.27-1.37-2.22-1.35s-1.74.53-2.15,1.35c-.31.64-1.16.85-1.79.44-.8-.52-1.82-.58-2.66-.09-.78.45-1.21,1.28-1.12,2.18.07.73-.61,1.28-1.35,1.22-.97-.08-1.82.38-2.27,1.1-.5.79-.41,1.73.13,2.47.23.31.27.68.14,1.07-.24.75-1.7.73-2.01,2.27h26.24Z"/>
    </g>
  </g>
</svg>